<svg width="950" height="855" viewBox="0 0 950 855" fill="none" xmlns="http://www.w3.org/2000/svg">
<path d="M675.802 517.409C726.785 550.092 778.095 585.548 823.566 626.606C845.165 646.109 866.524 666.784 884.187 689.979C892.187 700.479 910.03 729.28 925.855 714.449C935.588 705.326 918.952 669.898 880.47 630.069C841.989 590.243 771.214 515.905 789.548 504.245C804.865 494.501 834.32 528.891 843.216 536.769C851.127 543.778 860.409 553.657 871.044 557.021C891.114 563.369 885.551 534.451 883.913 524.896C879.886 501.389 871.652 478.805 860.705 457.519C839.156 415.602 807.798 378.41 772.437 346.27C761.988 336.773 751.051 327.757 739.683 319.253C647.191 250.063 488.915 131.203 226.043 118.232C-36.8292 105.26 -3.79164 196.718 31.6963 214.725C67.1843 232.732 204.333 223.021 347.814 257.007C500.152 293.088 633.94 339.548 690.115 385.909C746.29 432.271 767.211 440.016 758.838 457.054C750.465 474.091 662.386 434.959 566.159 387.871C469.931 340.782 473.891 418.804 502.419 430.209C530.948 441.618 589.45 462.051 675.802 517.409Z" fill="url(#paint0_linear)"/>
<path d="M920.833 350.352C911.963 337.241 901.681 325.246 893.161 311.714C890.963 308.222 886.457 303.553 886.914 299.085C887.682 291.601 898.583 295.052 902.796 297.195C916.59 304.209 928.146 316.742 936.768 329.401C940.576 334.996 943.957 340.981 945.706 347.518C946.807 351.632 947.471 356.772 947.137 361.016C946.872 364.386 945.601 367.812 943.002 369.979C940.404 372.147 936.347 372.7 933.625 370.702C932.027 369.529 931.072 367.693 930.168 365.925C927.371 360.474 924.204 355.332 920.833 350.352Z" fill="url(#paint1_linear)"/>
<defs>
<linearGradient id="paint0_linear" x1="877.118" y1="668.227" x2="404.073" y2="69.3786" gradientUnits="userSpaceOnUse">
<stop stop-color="#FEDEED" stop-opacity="0.15"/>
<stop offset="1" stop-color="#F1B8D4"/>
</linearGradient>
<linearGradient id="paint1_linear" x1="915.561" y1="371.156" x2="918.27" y2="295.41" gradientUnits="userSpaceOnUse">
<stop stop-color="#FEDEED" stop-opacity="0.25"/>
<stop offset="1" stop-color="#F1B8D4"/>
</linearGradient>
</defs>
</svg>
