<svg width="744" height="696" viewBox="0 0 744 696" fill="none" xmlns="http://www.w3.org/2000/svg">
<path d="M210.139 306.072C177.661 280.509 145.142 253.038 116.95 222.139C103.558 207.461 90.4058 192.003 79.9257 175.072C75.1791 167.406 64.9415 146.651 53.2358 155.703C46.0365 161.272 55.0237 186.456 78.552 216.062C102.08 245.666 145.283 300.856 132.08 307.587C121.05 313.213 103.295 287.897 97.7698 281.956C92.8559 276.672 87.1983 269.346 80.199 266.362C66.9894 260.732 68.8846 280.765 69.3748 287.371C70.5794 303.622 74.699 319.521 80.7447 334.715C92.6447 364.634 111.509 391.981 133.42 416.153C139.894 423.296 146.73 430.143 153.893 436.671C212.17 489.779 311.866 580.971 489.441 606.984C667.017 632.997 650.541 568.631 627.626 554.063C604.71 539.495 510.992 537.132 415.818 504.633C314.768 470.131 226.984 429.782 191.872 394.576C156.759 359.369 143.063 352.733 149.854 341.693C156.646 330.652 213.882 363.028 276.132 401.348C338.382 439.668 340.769 386.342 322.148 376.719C303.526 367.094 265.148 349.371 210.139 306.072Z" fill="url(#paint0_linear)"/>
<path d="M77.5091 471.032C87.5097 482.877 98.7658 493.487 108.471 505.78C110.974 508.953 115.846 513.03 115.87 517.432C115.909 524.809 104.948 522.592 100.627 520.947C86.4787 515.563 73.9273 504.563 64.2156 493.131C59.9256 488.079 56.01 482.601 53.6224 476.413C52.1202 472.519 50.9356 467.579 50.8143 463.407C50.7182 460.093 51.5946 456.62 53.8931 454.234C56.1917 451.848 60.0781 450.881 62.9344 452.542C64.6117 453.517 65.733 455.206 66.7973 456.834C70.0889 461.853 73.7083 466.532 77.5091 471.032Z" fill="url(#paint1_linear)"/>
<defs>
<linearGradient id="paint0_linear" x1="131.35" y1="248.152" x2="424.283" y2="582.236" gradientUnits="userSpaceOnUse">
<stop stop-color="#FF6767"/>
<stop offset="0.702827" stop-color="#FFB07D" stop-opacity="0.5"/>
</linearGradient>
<linearGradient id="paint1_linear" x1="80.4502" y1="450.198" x2="126.239" y2="520.283" gradientUnits="userSpaceOnUse">
<stop stop-color="#FF6767"/>
<stop offset="1" stop-color="#FFB07D" stop-opacity="0.5"/>
</linearGradient>
</defs>
</svg>
