<svg width="399" height="400" viewBox="0 0 399 400" fill="none" xmlns="http://www.w3.org/2000/svg">
<path d="M278.964 167.472C282.763 166.853 285.236 169.238 281.703 172.242C278.169 175.245 272.604 178.16 275.078 180.81C277.639 183.46 305.111 180.545 324.544 174.362C344.066 168.178 346.098 164.38 351.663 170.652C357.228 176.923 353.253 183.813 336.999 189.467C320.746 195.12 287.974 199.007 275.784 196.18C263.594 193.353 260.149 191.233 263.153 187.612C266.156 183.99 268.099 180.368 263.683 180.28C259.266 180.192 244.426 179.838 240.716 176.923C237.094 173.92 237.801 173.655 244.868 172.948C252.199 172.153 272.074 168.62 278.964 167.472Z" fill="url(#paint0_linear)"/>
<path d="M300.871 162.437C307.585 160.758 315.093 157.225 316.771 161.818C318.538 166.323 306.613 170.828 299.458 169.592C292.303 168.355 291.155 164.91 300.871 162.437Z" fill="url(#paint1_linear)"/>
<path d="M227.643 157.667C231.706 158.02 230.293 168.532 222.608 169.062C200.171 170.652 172.17 160.052 153.973 151.395C151.058 149.982 149.998 155.017 154.945 159.875C159.803 164.822 168.371 168.355 162.453 171.27C156.446 174.185 128.18 159.61 120.141 149.098C112.103 138.587 120.406 137.88 125.618 138.233C130.83 138.587 132.95 133.287 125 127.633C117.05 121.98 96.2914 106.168 98.6764 102.282C101.061 98.3068 126.943 120.832 154.68 134.347C194.253 153.603 208.74 156.077 227.643 157.667Z" fill="url(#paint2_linear)"/>
<path d="M88.4298 249.092C84.3665 244.675 80.4798 238.58 77.2998 241.053C74.1198 243.527 80.5682 252.36 86.3098 254.833C92.0515 257.307 94.2598 255.452 88.4298 249.092Z" fill="#F9E0EC"/>
<path d="M91.7864 118.889C89.578 118.094 80.4797 120.302 92.0514 130.372C97.3514 134.965 103.535 140.795 106.538 138.145C109.541 135.584 103.976 123.217 91.7864 118.889Z" fill="url(#paint3_linear)"/>
<path d="M67.6715 205.985C59.4565 200.155 50.7115 206.692 64.4032 218.352C70.6748 223.652 75.8865 226.743 79.2432 223.652C82.5115 220.56 80.1265 214.818 67.6715 205.985Z" fill="url(#paint4_linear)"/>
<path d="M360.585 153.78C366.68 148.127 359.878 139.205 351.398 145.565C347.688 148.215 341.858 154.134 344.067 158.109C346.275 161.995 353.518 160.14 360.585 153.78Z" fill="url(#paint5_linear)"/>
<path d="M82.3346 145.918C86.4863 148.745 90.8146 143.533 85.9563 139.382C83.9246 137.527 81.5396 136.908 79.508 138.675C77.4763 140.53 77.653 142.65 82.3346 145.918Z" fill="url(#paint6_linear)"/>
<path d="M50.5347 132.845C50.888 128.87 55.658 131.785 62.6364 138.233C69.6147 144.77 79.4197 162.702 120.23 176.04C161.04 189.378 166.163 188.23 166.163 198.3C166.163 208.37 141.076 197.417 123.94 189.29C106.803 181.163 95.4964 179.662 95.408 187.17C95.408 194.678 118.021 215.702 169.431 220.472C220.841 225.242 245.221 210.137 255.998 221.443C266.775 232.838 234.18 251.388 192.663 247.06C151.058 242.82 124.735 234.87 93.9063 208.547C63.078 182.223 61.753 168.973 65.6397 166.765C69.5264 164.38 74.208 175.157 81.0097 177.188C87.8114 179.22 88.0764 176.217 84.1897 171.8C80.303 167.383 49.9164 139.912 50.5347 132.845Z" fill="url(#paint7_linear)"/>
<path d="M307.232 218.882C304.758 220.472 302.373 227.627 310.677 226.39C325.252 224.8 354.843 209.518 353.872 200.067C353.96 195.208 320.835 210.313 307.232 218.882Z" fill="url(#paint8_linear)"/>
<path d="M318.891 236.637C323.75 235.488 328.52 246.088 320.746 251.742C298.575 266.582 271.28 264.903 268.983 268.348C266.686 271.793 267.57 273.03 275.696 274.443C283.823 275.857 302.726 271.263 298.31 278.507C293.893 285.75 245.575 292.728 222.696 283.542C208.21 277.8 226.671 277.005 232.236 273.56C237.801 270.203 236.741 263.313 224.993 263.225C213.333 263.137 182.946 258.72 182.858 253.155C182.77 247.502 223.491 258.985 260.061 252.448C296.631 245.912 297.868 243.615 318.891 236.637Z" fill="url(#paint9_linear)"/>
<path d="M202.998 139.117C205.913 140.795 204.941 145.565 201.055 144.417C197.168 143.269 185.42 139.647 182.24 136.732C179.06 133.817 182.151 131.343 186.745 132.58C191.426 133.817 198.67 136.555 202.998 139.117Z" fill="#F37D56"/>
<path d="M248.931 336.453H227.466C225.435 336.453 223.845 334.863 223.845 332.832V308.893C223.845 306.862 225.435 305.272 227.466 305.272H248.931C250.963 305.272 252.553 306.862 252.553 308.893V332.832C252.553 334.863 250.963 336.453 248.931 336.453Z" fill="url(#paint10_linear)"/>
<path d="M282.145 336.453H260.68C258.648 336.453 257.058 334.863 257.058 332.832V308.893C257.058 306.862 258.648 305.272 260.68 305.272H282.145C284.176 305.272 285.766 306.862 285.766 308.893V332.832C285.766 334.863 284.176 336.453 282.145 336.453Z" fill="#FAA65A"/>
<path d="M268.983 330.182C268.63 330.182 268.188 330.005 267.923 329.74L261.475 323.115C260.945 322.585 260.945 321.613 261.475 321.083C262.005 320.553 262.976 320.553 263.506 321.083L268.806 326.472L279.76 312.25C280.201 311.632 281.173 311.543 281.791 311.985C282.41 312.427 282.498 313.398 282.056 314.017L270.131 329.563C269.866 330.005 269.513 330.182 268.983 330.182C268.983 330.182 269.071 330.182 268.983 330.182Z" fill="white"/>
<path d="M315.358 336.453H293.893C291.861 336.453 290.271 334.863 290.271 332.832V308.893C290.271 306.862 291.861 305.272 293.893 305.272H315.358C317.39 305.272 318.98 306.862 318.98 308.893V332.832C318.98 334.863 317.301 336.453 315.358 336.453Z" fill="url(#paint11_linear)"/>
<path d="M190.189 346.612C188.864 346.612 187.628 346.347 186.656 345.905C182.504 343.962 165.544 279.39 162.364 270.468C159.184 261.547 150.969 233.722 150.263 226.39C149.998 223.033 150.263 219.323 151.588 216.497C153.178 213.052 156.181 210.843 161.393 212.257C171.993 215.083 177.116 240.877 180.738 260.045C183.476 274.62 197.609 332.39 198.581 339.015C199.288 344.227 194.341 346.612 190.189 346.612Z" fill="url(#paint12_linear)"/>
<path d="M190.189 346.612C188.864 346.612 186.568 347.23 185.596 346.7C181.444 344.757 165.544 279.39 162.453 270.468C159.273 261.547 151.058 233.722 150.351 226.39C150.086 223.033 150.351 219.323 151.676 216.497C155.828 230.1 187.893 336.718 189.306 342.283C189.571 343.962 189.924 345.375 190.189 346.612Z" fill="#F69241"/>
<path d="M198.669 344.403C198.669 344.403 198.051 346.7 195.754 347.937C193.546 349.173 189.306 348.202 189.306 348.202C189.306 348.202 190.013 350.587 187.009 351.293C184.006 352 180.296 350.057 180.208 346.082C180.119 342.107 183.034 341.047 184.624 341.047C186.214 341.047 187.539 341.4 187.539 341.4C187.539 341.4 188.158 339.633 190.543 338.75C192.928 337.867 194.783 338.485 194.783 338.485C194.783 338.485 195.666 335.57 199.376 334.775C203.086 333.98 205.029 338.397 204.411 341.488C203.793 344.58 200.966 344.668 198.669 344.403Z" fill="url(#paint13_linear)"/>
<path d="M95.4077 213.67C89.931 214.377 84.4543 220.383 79.2426 239.022C74.031 257.66 69.4376 272.942 71.0276 280.892C72.6176 288.842 78.6243 289.283 86.0443 287.87C93.4643 286.457 101.856 246 104.948 234.428C107.863 222.945 105.389 212.257 95.4077 213.67Z" fill="url(#paint14_linear)"/>
<path d="M79.5077 267.553C79.1544 267.553 78.801 267.288 78.6244 266.935C78.4477 266.405 78.6243 265.875 79.1543 265.698L89.136 261.723L82.776 259.427C82.246 259.25 82.0693 258.72 82.246 258.19C82.4227 257.66 82.9527 257.483 83.4827 257.66L92.1393 260.84C92.4927 261.017 92.7577 261.37 92.7577 261.723C92.7577 262.077 92.4927 262.518 92.1393 262.607L79.7727 267.553C79.7727 267.553 79.596 267.553 79.5077 267.553Z" fill="#F3802A"/>
<path d="M118.11 205.808L132.42 206.162L132.862 184.078L118.64 183.725L118.11 205.808Z" fill="url(#paint15_linear)"/>
<path d="M142.313 137.615C142.313 137.615 136.395 159.875 133.745 179.485C131.095 199.007 131.272 200.332 133.568 201.833C137.632 204.395 145.14 198.83 145.14 198.83C145.14 198.83 148.32 203.247 152.207 199.625C156.093 196.003 155.917 193.265 155.917 193.265C155.917 193.265 158.832 197.152 161.217 191.852C163.513 186.552 160.598 167.56 156.182 154.575C152.913 145.388 142.313 137.615 142.313 137.615Z" fill="url(#paint16_linear)"/>
<path d="M145.582 198.477C145.405 198.653 145.14 198.653 144.963 198.477C144.61 198.212 144.522 197.593 144.698 197.152C144.698 197.152 145.758 194.237 146.023 191.587C146.2 188.848 146.023 186.375 146.023 186.375C146.023 185.845 146.2 185.315 146.553 185.315C146.907 185.227 147.26 185.668 147.26 186.198C147.26 186.287 147.437 188.848 147.26 191.852C146.995 194.943 145.847 198.035 145.847 198.123C145.758 198.212 145.67 198.388 145.582 198.477Z" fill="#600B32"/>
<path d="M156.182 193.265C156.005 193.442 155.828 193.442 155.563 193.265C155.21 193 155.122 192.47 155.298 191.94C155.298 191.94 155.917 190.173 155.917 188.407C156.005 186.552 155.828 184.962 155.828 184.962C155.74 184.432 156.005 183.902 156.358 183.813C156.712 183.725 157.065 184.078 157.065 184.608C157.065 184.697 157.242 186.375 157.153 188.407C157.065 190.527 156.447 192.558 156.358 192.647C156.358 193.088 156.27 193.177 156.182 193.265Z" fill="#600B32"/>
<path d="M150.97 157.932C151.235 156.607 152.648 155.812 153.973 156.342C155.74 157.048 157.86 158.727 158.302 162.613C159.097 169.503 155.033 173.567 152.118 174.627C151.323 174.98 150.528 175.068 149.91 175.068C148.585 175.068 147.613 173.743 147.878 172.418L150.97 157.932Z" fill="url(#paint17_linear)"/>
<path d="M152.206 161.818C152.383 161.023 153.178 160.582 153.973 160.847C155.033 161.288 156.27 162.26 156.535 164.557C156.976 168.532 154.591 170.917 152.913 171.623C152.471 171.8 152.03 171.888 151.588 171.888C150.793 171.888 150.263 171.093 150.351 170.298L152.206 161.818Z" fill="url(#paint18_linear)"/>
<path d="M99.295 146.713C99.295 146.713 93.5533 167.03 90.9033 176.481C88.2533 185.845 88.165 192.382 92.405 195.297C96.645 198.212 100.443 192.558 100.443 192.558C100.443 192.558 101.238 199.36 103.888 201.215C106.538 203.07 109.277 199.272 109.277 199.272C109.277 199.272 117.05 207.928 121.555 200.773C123.41 197.77 118.11 172.153 115.46 159.345C112.81 146.625 99.295 146.713 99.295 146.713Z" fill="url(#paint19_linear)"/>
<path d="M109.453 198.476C109.63 198.653 109.895 198.653 110.071 198.476C110.425 198.211 110.513 197.593 110.336 197.151C110.336 197.151 109.276 194.236 109.011 191.586C108.835 188.848 109.011 186.375 109.011 186.375C109.011 185.845 108.835 185.315 108.481 185.315C108.128 185.226 107.775 185.668 107.775 186.198C107.775 186.286 107.598 188.848 107.775 191.851C108.04 194.943 109.188 198.035 109.276 198.123C109.276 198.211 109.365 198.388 109.453 198.476Z" fill="#600B32"/>
<path d="M100.09 192.205C100.267 192.381 100.443 192.381 100.708 192.205C101.062 191.94 101.15 191.41 100.973 190.88C100.973 190.88 100.355 189.113 100.355 187.346C100.267 185.491 100.443 183.901 100.443 183.901C100.532 183.371 100.267 182.841 99.9135 182.753C99.5601 182.665 99.2068 183.018 99.2068 183.548C99.2068 183.636 99.0302 185.315 99.1185 187.346C99.2068 189.466 99.8251 191.498 99.9135 191.586C99.9135 191.94 100.002 192.116 100.09 192.205Z" fill="#600B32"/>
<path d="M99.6481 157.932C99.3831 156.607 97.9698 155.812 96.6448 156.342C94.8781 157.048 92.7581 158.727 92.3165 162.613C91.5215 169.503 95.5848 173.567 98.4998 174.627C99.2948 174.98 100.09 175.068 100.708 175.068C102.033 175.068 103.005 173.743 102.74 172.418L99.6481 157.932Z" fill="url(#paint20_linear)"/>
<path d="M98.3233 161.818C98.1466 161.023 97.3516 160.582 96.5566 160.847C95.4966 161.288 94.26 162.26 93.995 164.557C93.5533 168.532 95.9383 170.917 97.6167 171.623C98.0583 171.8 98.5 171.888 98.9417 171.888C99.7367 171.888 100.267 171.093 100.178 170.298L98.3233 161.818Z" fill="url(#paint21_linear)"/>
<path d="M105.125 179.308C111.485 193.265 123.763 196.71 135.07 191.498C146.376 186.287 151.058 165.882 150.705 153.78C150.351 141.678 143.638 127.81 127.826 126.75C113.428 125.778 105.125 129.93 101.503 139.647C101.15 140.53 100.885 141.502 100.62 142.473C100.62 142.473 100.09 146.625 99.7365 152.367C99.2948 160.847 102.21 172.948 105.125 179.308Z" fill="url(#paint22_linear)"/>
<path d="M99.5601 156.695C99.9134 156.783 100.885 156.871 101.238 156.783C104.153 156.43 109.277 151.395 109.365 151.748C109.365 152.101 110.16 155.9 114.665 154.221C119.17 152.543 121.378 148.126 121.378 148.126C121.378 148.126 123.057 148.126 127.208 149.098C131.36 150.07 140.812 149.628 140.812 149.628C140.812 149.628 130.212 142.12 130.123 141.678C129.947 141.236 125.265 141.148 125.265 141.148C125.265 141.148 118.993 139.381 116.52 138.675C114.047 137.968 103.623 141.06 103.623 141.06C103.623 141.06 102.917 142.296 101.857 143.886C101.503 144.77 101.238 145.741 100.973 146.713C101.062 146.978 99.9134 150.953 99.5601 156.695Z" fill="url(#paint23_linear)"/>
<path d="M122.262 144.505C122.262 144.505 117.58 152.278 113.605 153.515C109.63 154.752 109.718 149.363 109.718 149.363C109.718 149.363 103.005 155.282 99.1184 155.9C95.2317 156.518 97.9701 145.477 100.797 141.59C103.623 137.703 128.445 132.403 122.262 144.505Z" fill="url(#paint24_linear)"/>
<path d="M145.935 150.158L148.055 171.977L152.472 153.957C152.472 153.957 149.027 151.218 145.935 150.158Z" fill="#600B32"/>
<path d="M104.86 148.745L102.74 172.418L96.645 151.483C96.645 151.572 101.768 149.805 104.86 148.745Z" fill="#600B32"/>
<path d="M160.334 153.78C160.599 156.607 157.684 158.55 155.299 157.137C149.38 153.868 134.275 146.36 119.435 147.243C100.444 148.392 97.4402 153.78 95.3202 152.808C91.1685 150.953 93.7302 144.152 94.4369 142.827C95.1435 141.502 96.0269 118.358 119.259 111.115C142.49 103.872 153.444 114.472 155.387 119.507C158.39 127.457 153.267 132.58 153.444 136.113C153.62 139.647 158.39 147.243 159.185 148.922C159.45 149.717 160.157 151.748 160.334 153.78Z" fill="url(#paint25_linear)"/>
<path d="M158.743 150.6C158.832 150.6 158.92 150.512 159.008 150.424C159.273 150.07 159.185 149.629 158.832 149.364C158.39 148.922 147.613 139.205 128.975 137.35C110.425 135.495 96.2033 141.502 96.0267 141.59C95.6733 141.767 95.4966 142.209 95.6733 142.562C95.85 143.004 96.2916 143.18 96.645 143.004C96.8216 142.915 110.778 137.085 128.975 138.852C147.083 140.619 157.86 150.335 157.948 150.512C158.213 150.6 158.567 150.689 158.743 150.6Z" fill="#CB2527"/>
<path d="M152.648 154.928C152.825 154.84 152.913 154.752 153.002 154.487C153.002 154.398 153.62 152.543 153.973 149.982C154.327 147.42 154.238 146.625 154.238 146.448C154.15 146.007 153.797 145.742 153.443 145.742C153.09 145.742 152.825 146.183 152.913 146.625C152.913 146.625 153.002 147.332 152.648 149.54C152.295 152.013 151.677 153.868 151.677 153.868C151.588 154.222 151.765 154.752 152.118 154.928C152.295 155.017 152.472 155.017 152.648 154.928Z" fill="#CB2527"/>
<path d="M144.169 150.423C144.345 150.335 144.434 150.158 144.522 149.982L146.465 142.385C146.554 141.943 146.377 141.502 145.935 141.413C145.582 141.237 145.14 141.502 145.052 141.855L143.109 149.452C143.02 149.893 143.197 150.335 143.639 150.423C143.815 150.512 143.992 150.512 144.169 150.423Z" fill="#CB2527"/>
<path d="M134.628 147.95C134.805 147.862 134.982 147.685 134.982 147.42L136.218 139.293C136.307 138.852 136.042 138.41 135.6 138.322C135.247 138.233 134.805 138.41 134.805 138.852L133.568 146.978C133.48 147.42 133.745 147.862 134.187 147.95C134.363 147.95 134.54 147.95 134.628 147.95Z" fill="#CB2527"/>
<path d="M125.707 146.36C125.883 146.272 126.06 146.095 126.06 145.83L127.12 137.968C127.208 137.527 126.943 137.085 126.502 136.997C126.148 136.908 125.795 137.173 125.707 137.527L124.647 145.388C124.558 145.83 124.823 146.272 125.265 146.36C125.353 146.448 125.53 146.448 125.707 146.36Z" fill="#CB2527"/>
<path d="M114.93 146.183C115.107 146.095 115.283 145.918 115.283 145.742L116.785 138.233C116.873 137.792 116.608 137.35 116.255 137.262C115.902 137.085 115.46 137.35 115.372 137.792L113.87 145.3C113.782 145.742 114.047 146.183 114.4 146.272C114.665 146.272 114.842 146.272 114.93 146.183Z" fill="#CB2527"/>
<path d="M104.948 147.597C105.125 147.508 105.302 147.332 105.302 147.155L106.892 139.735C106.98 139.293 106.715 138.852 106.362 138.763C106.008 138.587 105.567 138.852 105.478 139.293L103.888 146.713C103.8 147.155 104.065 147.597 104.418 147.685C104.595 147.597 104.772 147.597 104.948 147.597Z" fill="#CB2527"/>
<path d="M98.2351 150.158C98.4118 150.07 98.5884 149.893 98.5884 149.628L99.6484 141.413C99.7368 140.972 99.4718 140.53 99.0301 140.442C98.6768 140.353 98.3234 140.618 98.2351 140.972L97.1751 149.187C97.0868 149.628 97.3518 150.07 97.7935 150.158C97.9701 150.247 98.1468 150.158 98.2351 150.158Z" fill="#CB2527"/>
<path d="M126.678 206.25C102.651 207.222 91.8744 213.67 90.7261 220.295C89.5778 226.92 87.5461 319.847 85.6028 334.333C83.6594 348.82 88.0761 353.943 109.276 357.388C134.716 361.54 153.619 358.183 160.421 355.357C169.784 351.382 171.728 348.732 171.374 340.782C171.374 339.81 167.046 276.033 164.838 249.622C162.629 223.298 166.869 215.083 161.216 211.727C154.768 207.928 151.411 205.278 126.678 206.25Z" fill="url(#paint26_linear)"/>
<path d="M136.306 210.755H116.784C114.929 210.755 113.428 209.253 113.428 207.398V202.717C113.428 200.862 114.929 199.36 116.784 199.36H136.306C138.161 199.36 139.663 200.862 139.663 202.717V207.398C139.663 209.253 138.161 210.755 136.306 210.755Z" fill="url(#paint27_linear)"/>
<path d="M138.515 209.077C138.426 209.077 138.426 209.165 138.338 209.165C138.073 209.253 131.978 211.285 125.795 211.285C119.611 211.373 114.93 209.783 114.753 209.695C114.311 209.518 114.046 208.988 114.135 208.547C114.311 208.017 114.753 207.752 115.283 207.928C115.371 207.928 119.876 209.43 125.795 209.43C131.713 209.342 137.72 207.398 137.808 207.398C138.25 207.222 138.78 207.487 138.956 208.017C139.133 208.37 138.868 208.9 138.515 209.077Z" fill="#F3802A"/>
<path d="M118.463 210.313C118.286 210.402 118.198 210.49 118.021 210.402C117.491 210.313 117.138 209.783 117.226 209.165L117.58 202.805C117.58 202.187 118.021 201.657 118.551 201.745C119.081 201.833 119.435 202.363 119.346 202.982L118.993 209.342C118.905 209.783 118.728 210.137 118.463 210.313Z" fill="#F3802A"/>
<path d="M124.47 211.02C124.381 211.108 124.205 211.197 124.028 211.197C123.498 211.197 123.145 210.667 123.145 210.048V202.54C123.145 201.922 123.586 201.392 124.028 201.392C124.558 201.392 124.911 201.922 124.911 202.54V210.048C124.911 210.402 124.735 210.755 124.47 211.02Z" fill="#F3802A"/>
<path d="M130.388 210.49C130.3 210.578 130.123 210.667 129.946 210.667C129.416 210.667 129.063 210.225 129.063 209.518L128.798 201.833C128.798 201.215 129.151 200.597 129.681 200.597C130.211 200.597 130.565 201.038 130.565 201.745L130.83 209.43C130.83 209.872 130.653 210.313 130.388 210.49Z" fill="#F3802A"/>
<path d="M135.953 209.342C135.865 209.43 135.776 209.43 135.6 209.43C135.07 209.518 134.716 209.077 134.628 208.37L134.098 202.275C134.01 201.657 134.363 201.038 134.893 200.95C135.423 200.862 135.776 201.303 135.865 202.01L136.395 208.105C136.483 208.723 136.218 209.165 135.953 209.342Z" fill="#F3802A"/>
<path d="M128.445 352.177C100.531 352.177 87.1929 344.05 86.6629 343.697C86.2213 343.432 86.0446 342.813 86.3979 342.372C86.6629 341.93 87.2813 341.753 87.7229 342.107C87.8996 342.195 102.828 351.293 133.745 350.233C164.043 349.173 168.813 342.637 168.901 342.548C169.166 342.107 169.785 342.018 170.226 342.283C170.668 342.548 170.756 343.167 170.491 343.608C170.315 343.873 165.545 351.028 133.833 352.177C131.89 352.177 130.211 352.177 128.445 352.177Z" fill="#F3802A"/>
<path d="M89.9311 349.88C89.3128 349.88 88.9595 349.438 88.9595 348.908L89.2245 344.492C89.2245 343.962 89.6661 343.52 90.1961 343.608C90.7261 343.608 91.1678 344.05 91.0795 344.58L90.8145 348.997C90.9028 349.527 90.4611 349.88 89.9311 349.88Z" fill="#F3802A"/>
<path d="M96.5561 352.707C96.5561 352.707 96.4678 352.707 96.5561 352.707C95.9378 352.707 95.5845 352.265 95.5845 351.735L95.8495 347.318C95.8495 346.788 96.2911 346.435 96.8211 346.435C97.3511 346.435 97.7928 346.877 97.7045 347.407L97.4395 351.823C97.4395 352.265 97.0861 352.707 96.5561 352.707Z" fill="#F3802A"/>
<path d="M105.036 354.562C104.948 354.562 104.948 354.562 105.036 354.562C104.418 354.562 104.064 354.12 104.064 353.59L104.329 349.173C104.329 348.643 104.771 348.29 105.301 348.29C105.831 348.29 106.273 348.732 106.184 349.262L105.919 353.678C105.919 354.208 105.478 354.562 105.036 354.562Z" fill="#F3802A"/>
<path d="M113.34 356.152C113.34 356.152 113.251 356.152 113.34 356.152C112.721 356.152 112.368 355.71 112.368 355.18L112.633 350.763C112.633 350.233 113.075 349.88 113.605 349.88C114.135 349.88 114.576 350.322 114.488 350.852L114.223 355.268C114.223 355.71 113.87 356.152 113.34 356.152Z" fill="#F3802A"/>
<path d="M121.643 356.505C121.025 356.505 120.671 356.063 120.671 355.533L120.936 351.117C120.936 350.587 121.378 350.233 121.908 350.233C122.438 350.233 122.88 350.675 122.791 351.205L122.526 355.622C122.615 356.152 122.173 356.505 121.643 356.505Z" fill="#F3802A"/>
<path d="M129.858 356.77C129.858 356.77 129.77 356.77 129.858 356.77C129.24 356.77 128.886 356.328 128.886 355.798L129.151 351.382C129.151 350.852 129.593 350.498 130.123 350.498C130.653 350.498 131.095 350.94 131.006 351.47L130.741 355.887C130.741 356.328 130.3 356.77 129.858 356.77Z" fill="#F3802A"/>
<path d="M138.426 356.858C138.426 356.858 138.338 356.858 138.426 356.858C137.808 356.858 137.455 356.417 137.455 355.887L137.72 351.47C137.72 350.94 138.161 350.587 138.691 350.587C139.221 350.587 139.663 351.028 139.575 351.558L139.31 355.975C139.31 356.417 138.956 356.858 138.426 356.858Z" fill="#F3802A"/>
<path d="M147.083 355.533C147.083 355.533 146.995 355.533 147.083 355.533C146.465 355.533 146.111 355.092 146.111 354.562L146.376 350.145C146.376 349.615 146.818 349.262 147.348 349.262C147.878 349.262 148.32 349.703 148.231 350.233L147.966 354.65C147.966 355.18 147.613 355.533 147.083 355.533Z" fill="#F3802A"/>
<path d="M156.005 354.208C155.387 354.208 155.033 353.767 155.033 353.237L155.298 348.82C155.298 348.29 155.74 347.937 156.27 347.937C156.8 347.937 157.242 348.378 157.153 348.908L156.888 353.325C156.977 353.855 156.535 354.208 156.005 354.208Z" fill="#F3802A"/>
<path d="M163.513 352.353C163.513 352.353 163.425 352.353 163.513 352.353C162.895 352.353 162.542 351.912 162.542 351.382L162.806 346.965C162.806 346.435 163.248 345.993 163.778 346.082C164.308 346.082 164.75 346.523 164.662 347.053L164.397 351.47C164.397 352 164.043 352.353 163.513 352.353Z" fill="#F3802A"/>
<path d="M114.841 209.695C114.841 209.695 118.021 224.535 118.021 232.485C118.021 240.435 116.255 241.672 116.255 241.672C116.255 241.672 122.173 257.042 120.848 267.112C119.611 277.093 118.64 277.447 119.435 282.04C120.23 286.633 120.406 306.332 119.611 307.568C118.816 308.805 122.968 329.475 120.053 336.188C117.226 342.813 105.566 344.757 97.3512 343.52C89.1362 342.283 87.1929 336.895 87.1929 336.895L87.3695 332.302C87.3695 332.302 103.888 218.617 104.065 217.998C104.241 217.203 114.841 209.695 114.841 209.695Z" fill="#F69241"/>
<path d="M138.868 211.55C138.868 211.55 137.278 226.655 137.278 232.662C137.278 238.668 137.72 243.173 136.836 245.558C135.865 247.943 134.893 263.313 136.218 272.588C137.455 281.775 134.805 288.665 135.07 295.732C135.423 302.887 135.423 310.307 135.423 310.307C135.423 310.307 129.505 329.21 135.6 336.63C141.606 344.05 158.478 344.845 163.866 342.99C169.255 341.047 168.636 329.652 168.636 329.652C168.636 329.652 160.245 262.695 160.245 261.105C160.245 259.515 159.891 227.45 159.891 227.45L138.868 211.55Z" fill="#F69241"/>
<path d="M94.2596 209.783C99.1179 207.31 109.541 203.335 114.223 206.868C116.52 208.547 117.756 217.998 117.315 227.273C116.961 235.135 112.456 240.523 112.456 240.523C112.456 240.523 118.198 245.117 117.933 258.367C117.668 271.617 115.636 276.652 115.636 276.652C115.636 276.652 118.728 282.04 117.491 294.937C116.255 307.745 115.636 307.833 115.636 307.833C115.636 307.833 119.17 311.72 118.905 320.465C118.551 329.21 118.11 331.418 115.548 334.687C110.69 340.782 95.7613 342.018 91.6096 340.958C87.4579 339.898 82.8646 330.623 83.1296 322.32C83.3946 314.017 86.6629 307.745 86.6629 307.745C86.6629 307.745 83.5713 299.353 84.2779 291.05C85.2496 278.86 87.5463 274.532 87.5463 274.532C87.5463 274.532 85.3379 267.465 87.1046 255.805C88.6946 245.205 85.9563 242.908 85.5146 225.86C85.3379 220.825 86.7513 213.582 94.2596 209.783Z" fill="url(#paint28_linear)"/>
<path d="M112.103 241.76C112.014 241.76 111.926 241.76 111.838 241.76C111.749 241.76 106.449 241.848 101.768 241.407C97.086 241.053 91.521 239.905 91.4326 239.905C90.991 239.817 90.726 239.375 90.8143 239.022C90.9026 238.58 91.256 238.315 91.6976 238.403C91.786 238.403 97.2626 239.552 101.856 239.905C106.449 240.258 111.749 240.258 111.838 240.258C112.279 240.258 112.633 240.612 112.633 241.053C112.633 241.318 112.456 241.672 112.103 241.76Z" fill="#A12168"/>
<path d="M102.474 312.25C102.386 312.25 102.298 312.338 102.121 312.25C101.944 312.25 97.8811 311.808 93.9944 310.748C90.1078 309.688 87.2811 308.628 87.2811 308.628C86.9278 308.452 86.6628 308.01 86.8394 307.657C87.0161 307.215 87.3694 307.038 87.8111 307.215C87.8111 307.215 90.6378 308.275 94.4361 309.335C98.2345 310.395 102.298 310.748 102.298 310.837C102.739 310.837 103.004 311.278 103.004 311.72C102.916 311.897 102.739 312.162 102.474 312.25Z" fill="#A12168"/>
<path d="M110.689 310.748L107.509 311.897C107.156 312.073 106.714 311.808 106.538 311.367C106.361 310.925 106.626 310.483 106.979 310.395L110.159 309.247C113.251 308.187 114.399 307.48 114.488 307.48C114.841 307.303 115.283 307.392 115.548 307.745C115.724 308.098 115.636 308.628 115.283 308.805C115.194 308.805 113.869 309.6 110.689 310.748Z" fill="#A12168"/>
<path d="M95.2309 277.093C95.1426 277.182 94.9659 277.182 94.7893 277.093L92.9343 276.652C91.0793 276.21 87.9876 275.327 87.8993 275.238C87.4576 275.15 87.2809 274.708 87.3693 274.267C87.4576 273.825 87.8993 273.648 88.3409 273.737C88.3409 273.737 91.5209 274.708 93.2876 275.15L95.1426 275.592C95.5843 275.68 95.7609 276.122 95.6726 276.563C95.5843 276.828 95.4076 277.005 95.2309 277.093Z" fill="#A12168"/>
<path d="M115.371 277.358H115.283C115.018 277.447 107.774 278.683 104.241 278.418C100.619 278.153 98.676 277.27 98.5877 277.27C98.2343 277.093 98.0577 276.652 98.2343 276.21C98.411 275.857 98.8527 275.592 99.206 275.768C99.206 275.768 101.061 276.563 104.329 276.828C107.686 277.093 115.018 275.857 115.018 275.857C115.459 275.768 115.813 276.122 115.901 276.475C115.901 276.828 115.724 277.182 115.371 277.358Z" fill="#A12168"/>
<path d="M87.3698 312.868C85.7798 314.547 87.7231 321.083 86.3098 325.147C84.8964 329.21 87.8998 338.043 92.4931 338.043C95.4081 338.043 97.7931 332.037 97.0864 328.062C96.4681 324.175 97.3514 317.285 95.0548 314.37C92.7581 311.632 91.3448 308.628 87.3698 312.868Z" fill="#C34498"/>
<path d="M161.04 209.783C156.535 206.78 145.758 203.335 141.076 206.868C138.78 208.547 137.543 217.998 137.985 227.273C138.338 235.135 142.843 240.523 142.843 240.523C142.843 240.523 137.101 245.117 137.366 258.367C137.631 271.617 139.663 276.652 139.663 276.652C139.663 276.652 136.571 282.04 137.808 294.937C139.045 307.745 139.663 307.833 139.663 307.833C139.663 307.833 136.13 311.72 136.395 320.465C136.66 329.21 137.19 331.418 139.751 334.687C144.61 340.782 159.538 342.018 163.69 340.958C167.841 339.898 172.435 330.623 172.17 322.32C171.816 314.017 168.636 307.745 168.636 307.745C168.636 307.745 171.728 299.353 171.021 291.05C170.05 278.86 167.753 274.532 167.753 274.532C167.753 274.532 168.636 267.553 168.195 255.805C168.018 249.71 169.873 241.142 170.226 224.093C170.403 215.172 166.958 213.758 161.04 209.783Z" fill="url(#paint29_linear)"/>
<path d="M143.197 241.76C143.285 241.76 143.373 241.76 143.462 241.848C143.55 241.848 148.762 241.937 153.267 241.583C157.772 241.23 163.16 240.17 163.248 240.17C163.602 240.082 163.867 239.64 163.778 239.287C163.69 238.845 163.337 238.58 162.895 238.668C162.807 238.668 157.507 239.728 153.09 240.082C148.585 240.435 143.462 240.347 143.462 240.347C143.02 240.347 142.755 240.7 142.755 241.142C142.755 241.318 142.932 241.672 143.197 241.76Z" fill="#A12168"/>
<path d="M152.913 312.25C153.001 312.25 153.089 312.338 153.266 312.25C153.443 312.25 157.506 311.808 161.393 310.748C165.279 309.688 168.106 308.628 168.106 308.628C168.459 308.452 168.724 308.01 168.548 307.657C168.371 307.215 168.018 307.038 167.576 307.215C167.576 307.215 164.749 308.275 160.951 309.335C157.153 310.395 153.089 310.748 153.089 310.837C152.648 310.837 152.383 311.278 152.383 311.72C152.471 311.897 152.648 312.162 152.913 312.25Z" fill="#A12168"/>
<path d="M144.698 310.748L147.878 311.897C148.231 312.073 148.673 311.808 148.85 311.367C149.027 310.925 148.762 310.483 148.408 310.395L145.228 309.247C142.136 308.187 140.988 307.48 140.9 307.48C140.546 307.303 140.105 307.392 139.84 307.745C139.663 308.098 139.751 308.628 140.105 308.805C140.193 308.805 141.43 309.6 144.698 310.748Z" fill="#A12168"/>
<path d="M160.156 277.093C160.244 277.182 160.421 277.182 160.598 277.093L162.453 276.652C164.308 276.21 167.399 275.327 167.488 275.238C167.929 275.15 168.106 274.708 168.018 274.267C167.929 273.825 167.488 273.648 167.046 273.737C167.046 273.737 163.866 274.708 162.099 275.15L160.244 275.592C159.803 275.68 159.626 276.122 159.714 276.563C159.714 276.828 159.891 277.005 160.156 277.093Z" fill="#A12168"/>
<path d="M140.016 277.358H140.105C140.37 277.447 147.613 278.683 151.146 278.418C154.768 278.153 156.711 277.27 156.8 277.27C157.153 277.093 157.33 276.652 157.153 276.21C156.976 275.857 156.535 275.592 156.181 275.768C156.181 275.768 154.326 276.563 151.058 276.828C147.701 277.093 140.37 275.857 140.37 275.857C139.928 275.768 139.575 276.122 139.486 276.475C139.398 276.828 139.663 277.182 140.016 277.358Z" fill="#A12168"/>
<path d="M167.929 312.868C169.519 314.547 167.576 321.083 168.989 325.147C170.403 329.21 167.399 338.043 162.806 338.043C159.891 338.043 157.506 332.037 158.213 328.062C158.831 324.175 157.948 317.285 160.244 314.37C162.541 311.632 164.043 308.628 167.929 312.868Z" fill="#C34498"/>
<path d="M135.18 164.096C134.352 164.146 133.746 165.252 133.825 166.567C133.904 167.882 134.639 168.907 135.467 168.857C136.295 168.807 136.902 167.701 136.823 166.386C136.744 165.071 136.008 164.046 135.18 164.096Z" fill="#461C34"/>
<path d="M114.746 164.094C113.918 164.144 113.311 165.25 113.39 166.565C113.47 167.88 114.205 168.905 115.033 168.855C115.861 168.805 116.467 167.699 116.388 166.384C116.309 165.07 115.574 164.044 114.746 164.094Z" fill="#461C34"/>
<path d="M137.985 157.49C138.78 158.108 137.808 159.257 135.158 158.197C132.508 157.137 132.243 155.723 133.215 155.635C134.187 155.547 136.307 156.165 137.985 157.49Z" fill="#461C34"/>
<path d="M112.103 157.667C112.545 157.313 115.901 155.017 116.608 155.9C117.315 156.783 113.516 158.903 112.28 159.08C111.131 159.168 112.103 157.667 112.103 157.667Z" fill="#461C34"/>
<path d="M125.706 165.793C126.236 166.412 127.473 174.538 127.12 176.393C126.855 177.807 124.47 178.69 123.586 176.217C122.703 173.655 124.558 164.557 125.706 165.793Z" fill="url(#paint30_linear)"/>
<path d="M131.272 180.28C131.537 180.633 129.947 184.255 124.823 183.813C120.23 183.372 118.816 181.163 119.17 180.545C119.611 179.838 121.378 182.223 125.177 182.223C129.77 182.312 130.653 179.485 131.272 180.28Z" fill="url(#paint31_linear)"/>
<path d="M137.808 245.823L142.843 257.483L120.23 271.528L115.195 256.512L137.808 245.823Z" fill="url(#paint32_linear)"/>
<path d="M122.085 269.673C122.085 269.673 94.7014 288.047 87.5464 291.138C80.3914 294.23 74.9147 292.375 72.5297 287.34C71.2931 284.778 72.2648 280.185 73.5014 276.298C74.8264 272.235 77.8298 268.967 81.7164 267.288L116.52 252.36L121.201 267.288L122.085 269.673Z" fill="url(#paint33_linear)"/>
<path d="M122.085 269.673C122.085 269.673 94.7015 288.047 87.5465 291.138C80.3915 294.23 74.9148 292.375 72.5298 287.34C75.0915 287.958 78.0948 287.958 81.6281 286.722C92.7581 282.747 119.876 266.052 119.876 266.052L121.201 267.2L122.085 269.673Z" fill="#F69241"/>
<path d="M120.318 255.098C120.318 255.098 122.173 256.158 123.322 258.808C124.47 261.458 123.322 264.992 123.322 264.992C123.322 264.992 126.325 265.345 126.943 268.79C127.473 272.235 124.912 276.122 120.495 275.857C116.078 275.592 115.107 272.235 115.283 270.468C115.372 268.702 115.902 267.288 115.902 267.288C115.902 267.288 113.958 266.493 113.163 263.667C112.368 260.84 113.34 258.897 113.34 258.897C113.34 258.897 110.16 257.572 109.63 253.42C109.1 249.268 114.223 247.502 117.58 248.385C120.937 249.357 120.848 252.537 120.318 255.098Z" fill="url(#paint34_linear)"/>
<path d="M137.543 244.587C137.543 244.587 130.123 246.618 130.211 247.855C130.3 249.003 131.271 253.862 132.861 257.218C134.451 260.575 138.073 262.872 139.663 262.43C141.253 261.988 144.521 258.278 145.228 257.395C145.935 256.512 146.376 255.01 146.553 254.922C146.73 254.833 148.32 255.363 151.058 253.067C153.796 250.77 154.15 248.12 154.15 248.12C154.15 248.12 154.768 248.032 154.68 248.473C154.591 248.915 152.736 251.83 153.09 252.713C153.443 253.597 155.74 254.48 157.418 252.802C159.185 251.123 162.541 247.325 162.453 246C162.276 244.675 161.658 243.703 161.658 243.703C161.658 243.703 164.661 242.378 163.955 239.375C163.248 236.372 162.895 236.018 161.305 233.81C159.715 231.602 155.828 226.743 152.206 227.362C150.616 227.627 142.401 238.403 141.076 240.788C139.84 243.173 138.073 244.322 137.543 244.587Z" fill="url(#paint35_linear)"/>
<path d="M139.045 262.253C138.868 262.253 138.691 262.165 138.603 261.988C138.515 261.723 138.603 261.458 138.78 261.37C138.78 261.37 142.136 259.515 143.815 256.865C144.875 255.275 144.963 254.215 144.963 254.127C144.963 254.038 145.051 253.862 145.14 253.773C145.228 253.685 145.405 253.685 145.493 253.685C145.581 253.685 147.79 254.127 150.351 252.007C152.913 249.887 153.443 248.473 154.061 246.883L154.15 246.618C154.768 245.028 154.856 243.792 154.856 243.792C154.856 243.527 155.121 243.35 155.386 243.35C155.651 243.35 155.828 243.615 155.828 243.88C155.828 243.968 155.74 245.205 155.033 246.883L154.945 247.148C154.326 248.738 153.708 250.417 150.97 252.625C148.761 254.48 146.73 254.568 145.846 254.568C145.758 255.098 145.405 256.07 144.61 257.218C142.843 259.957 139.398 261.9 139.221 261.988C139.133 262.253 139.133 262.253 139.045 262.253Z" fill="#A12168"/>
<path d="M162.011 246.707C161.746 246.707 161.569 246.53 161.569 246.265C161.569 246.265 161.393 245.028 160.598 243.88C159.803 242.732 157.418 241.848 157.418 241.848C157.153 241.76 157.064 241.495 157.153 241.23C157.241 240.965 157.506 240.877 157.771 240.965C157.859 240.965 160.421 241.937 161.393 243.262C162.364 244.587 162.541 246 162.541 246.088C162.541 246.53 162.364 246.707 162.011 246.707C162.099 246.707 162.099 246.707 162.011 246.707Z" fill="#A12168"/>
<path d="M163.601 240.082C163.424 240.082 163.248 239.993 163.159 239.817C163.159 239.817 162.364 237.785 161.039 236.637C159.626 235.488 158.389 235.223 158.301 235.223C158.036 235.135 157.859 234.958 157.948 234.693C158.036 234.428 158.213 234.252 158.478 234.34C158.566 234.34 159.979 234.693 161.569 235.93C163.159 237.167 163.954 239.375 163.954 239.552C164.043 239.817 163.954 240.082 163.689 240.17C163.689 240.082 163.601 240.082 163.601 240.082Z" fill="#A12168"/>
<path d="M154.945 253.597H154.856C154.238 253.597 153.885 253.243 153.708 253.067C153.09 252.095 153.62 251.123 154.326 249.798L154.591 249.357C155.298 248.032 154.945 247.06 154.945 247.06C154.856 246.795 154.945 246.53 155.21 246.442C155.475 246.353 155.74 246.442 155.828 246.707C155.828 246.795 156.27 248.032 155.386 249.71L155.121 250.152C154.415 251.388 154.15 252.007 154.503 252.448C154.591 252.537 154.68 252.537 154.945 252.625C155.74 252.625 157.065 252.095 157.86 251.123C159.008 249.622 161.393 246.883 161.481 246.795C161.658 246.618 161.923 246.618 162.1 246.707C162.276 246.883 162.276 247.148 162.188 247.325C162.188 247.325 159.803 250.152 158.655 251.565C157.506 252.978 155.916 253.597 154.945 253.597Z" fill="#A12168"/>
<path d="M161.835 235.665C161.658 235.665 161.481 235.577 161.393 235.4C161.393 235.4 160.686 233.987 158.213 231.513C155.386 228.775 153.885 228.51 153.796 228.51C153.531 228.422 153.355 228.245 153.443 227.98C153.531 227.715 153.708 227.538 153.973 227.627C154.061 227.627 155.74 227.98 158.831 230.895C161.57 233.457 162.276 234.958 162.276 235.047C162.365 235.312 162.276 235.577 162.011 235.665C162.011 235.665 161.923 235.665 161.835 235.665Z" fill="#CE5DAE"/>
<path d="M145.405 254.745C145.316 254.745 145.228 254.745 145.228 254.657C145.14 254.657 144.08 254.038 142.49 252.36C140.811 250.593 139.928 248.208 139.928 248.12C139.84 247.855 139.928 247.59 140.193 247.502C140.458 247.413 140.723 247.502 140.811 247.767C140.811 247.767 141.695 250.063 143.196 251.653C144.698 253.243 145.67 253.773 145.67 253.773C145.935 253.862 146.023 254.127 145.846 254.392C145.758 254.657 145.581 254.745 145.405 254.745Z" fill="#A12168"/>
<path d="M132.155 247.59C131.978 247.59 131.801 247.502 131.713 247.237C131.625 246.972 131.801 246.707 131.978 246.618C132.066 246.618 135.158 245.558 136.836 245.205C138.338 244.852 138.338 244.852 139.133 243.88C139.398 243.527 140.281 242.467 141.341 241.053C143.55 238.138 146.906 233.633 148.32 232.043C150.351 229.747 151.853 228.422 151.941 228.333C152.118 228.157 152.383 228.157 152.56 228.422C152.736 228.598 152.736 228.863 152.471 229.04C152.471 229.04 150.97 230.365 148.938 232.662C147.613 234.252 144.256 238.668 141.96 241.583C140.9 242.997 140.016 244.145 139.751 244.498C138.868 245.558 138.691 245.735 136.925 246.177C135.335 246.53 132.155 247.59 132.155 247.59C132.243 247.59 132.243 247.59 132.155 247.59Z" fill="#CE5DAE"/>
<path d="M123.41 252.007C123.41 252.007 123.056 256.6 125.53 261.105C128.003 265.61 130.388 265.522 130.388 265.522L136.748 261.37C136.748 261.37 134.186 259.427 132.508 255.363C130.83 251.212 130.388 248.738 130.388 248.738L123.41 252.007Z" fill="url(#paint36_linear)"/>
<path d="M132.42 248.562C133.038 250.152 131.095 252.537 128.445 253.508C125.795 254.48 122.968 254.038 122.35 252.448C121.466 250.152 123.498 248.12 126.148 247.148C128.798 246.177 131.448 246.177 132.42 248.562Z" fill="url(#paint37_linear)"/>
<path d="M131.801 247.855C132.42 249.445 130.741 251.565 128.18 252.537C125.53 253.508 122.968 253.067 122.35 251.477C121.731 249.887 123.41 247.767 125.971 246.795C128.533 245.823 131.183 246.265 131.801 247.855Z" fill="url(#paint38_linear)"/>
<path d="M130.565 247.943C131.006 249.18 129.77 250.858 127.65 251.653C125.53 252.448 123.498 252.095 123.056 250.77C122.615 249.533 123.851 247.855 125.971 247.06C128.091 246.265 130.035 246.707 130.565 247.943Z" fill="url(#paint39_linear)"/>
<path d="M130.653 248.12C131.095 249.268 129.77 250.947 127.738 251.742C125.706 252.537 123.675 252.183 123.145 251.035C122.615 249.887 124.028 248.208 126.06 247.413C128.091 246.618 130.211 246.883 130.653 248.12Z" fill="url(#paint40_linear)"/>
<path d="M251.758 272.323C238.684 272.323 225.876 269.938 213.863 265.08C211.654 264.197 210.594 261.723 211.478 259.515C212.361 257.307 214.834 256.247 217.043 257.13C228.084 261.547 239.833 263.755 251.846 263.755C291.243 263.755 326.841 238.933 340.533 202.01C341.239 199.978 343.359 198.83 345.479 199.272C347.599 199.713 349.013 201.657 348.836 203.777L346.363 242.908C346.186 245.293 344.154 247.06 341.769 246.883C339.384 246.707 337.618 244.675 337.794 242.29L338.943 224.358C320.128 253.773 287.356 272.323 251.758 272.323Z" fill="url(#paint41_linear)"/>
<path d="M213.333 66.5949C210.418 48.0449 194.342 33.9116 174.997 33.9116C153.532 33.9116 136.218 51.3133 136.218 72.69C136.218 74.1916 136.307 75.6933 136.483 77.1066C139.398 95.5683 155.475 109.702 174.82 109.702C196.285 109.702 213.598 92.3 213.598 70.9233C213.51 69.51 213.422 68.0083 213.333 66.5949ZM174.997 103.695C159.008 103.695 145.935 91.5933 144.257 76.135C144.168 74.9866 144.08 73.9266 144.08 72.7783C144.08 55.7299 157.948 41.8616 174.997 41.8616C190.367 41.8616 203.087 53.08 205.56 67.655C205.825 69.3333 206.002 71.0116 206.002 72.7783C205.913 89.8266 192.045 103.695 174.997 103.695Z" fill="url(#paint42_linear)"/>
<path d="M213.333 66.5951C211.125 47.2501 194.695 32.2334 174.731 32.2334C153.266 32.2334 135.953 49.6351 135.953 71.0117C135.953 73.1317 136.13 75.1634 136.483 77.1951C139.398 95.6567 155.475 109.79 174.82 109.79C196.285 109.79 213.598 92.3884 213.598 71.0117C213.51 69.5101 213.421 68.0084 213.333 66.5951ZM143.815 71.0117C143.815 53.8751 157.683 40.0951 174.731 40.0951C190.72 40.0951 203.793 52.1967 205.471 67.6551C205.56 68.8034 205.648 69.8634 205.648 71.0117C205.648 88.1484 191.78 101.928 174.731 101.928C159.361 101.928 146.641 90.7984 144.168 76.1351C143.903 74.4567 143.815 72.7784 143.815 71.0117Z" fill="url(#paint43_linear)"/>
<path d="M202.998 49.5467C202.557 49.5467 202.203 49.3701 201.938 49.0167C195.225 41.0667 185.42 36.5617 174.997 36.5617C169.873 36.5617 164.927 37.6217 160.333 39.7417C159.803 40.0067 159.273 40.1834 158.832 40.4484C158.125 40.8017 157.242 40.5367 156.888 39.8301C156.535 39.1234 156.8 38.2401 157.507 37.8867C158.037 37.6217 158.567 37.3567 159.185 37.0917C164.132 34.7951 169.52 33.6467 174.997 33.6467C186.215 33.6467 196.815 38.5934 204.147 47.0734C204.677 47.6917 204.588 48.5751 203.97 49.1051C203.617 49.3701 203.263 49.5467 202.998 49.5467Z" fill="white"/>
<path d="M251.758 251.565C297.177 251.565 333.997 214.746 333.997 169.327C333.997 123.908 297.177 87.0884 251.758 87.0884C206.339 87.0884 169.52 123.908 169.52 169.327C169.52 214.746 206.339 251.565 251.758 251.565Z" fill="url(#paint44_linear)"/>
<path d="M249.991 247.237C294.288 247.237 330.198 211.327 330.198 167.03C330.198 122.733 294.288 86.8235 249.991 86.8235C205.694 86.8235 169.785 122.733 169.785 167.03C169.785 211.327 205.694 247.237 249.991 247.237Z" fill="url(#paint45_linear)"/>
<path d="M251.758 235.4C288.249 235.4 317.831 205.818 317.831 169.327C317.831 132.835 288.249 103.253 251.758 103.253C215.267 103.253 185.685 132.835 185.685 169.327C185.685 205.818 215.267 235.4 251.758 235.4Z" fill="url(#paint46_linear)"/>
<path d="M312.708 169.327C312.708 169.945 312.708 170.563 312.708 171.182C311.736 204.042 284.795 230.277 251.758 230.277C218.103 230.277 190.808 202.982 190.808 169.327C190.808 160.582 192.663 152.278 195.931 144.77C205.383 123.305 226.848 108.377 251.758 108.377C285.413 108.288 312.708 135.583 312.708 169.327Z" fill="url(#paint47_linear)"/>
<path d="M312.708 169.327C312.708 169.945 312.708 170.563 312.708 171.182C300.342 185.668 281.88 194.855 261.298 194.855C230.028 194.855 203.705 173.655 195.932 144.77C205.383 123.305 226.848 108.377 251.758 108.377C285.413 108.288 312.708 135.583 312.708 169.327Z" fill="url(#paint48_linear)"/>
<path d="M255.998 171.182H248.048V120.213C248.048 118.005 249.815 116.238 252.023 116.238C254.232 116.238 255.998 118.005 255.998 120.213V171.182Z" fill="#A12168"/>
<path d="M248.048 168.62L255.91 169.503L251.405 207.84C251.14 210.048 249.197 211.55 246.988 211.373C244.78 211.108 243.278 209.165 243.455 206.957L248.048 168.62Z" fill="#A12168"/>
<path d="M221.283 194.678L211.39 202.54C210.153 203.512 208.475 203.335 207.503 202.098C206.532 200.862 206.708 199.183 207.945 198.212L217.838 190.35C219.075 189.378 220.753 189.555 221.725 190.792C222.608 192.028 222.432 193.795 221.283 194.678Z" fill="url(#paint49_linear)"/>
<path d="M291.95 138.498L282.057 146.36C280.82 147.332 279.142 147.155 278.17 145.918C277.198 144.682 277.375 143.003 278.612 142.032L288.505 134.17C289.742 133.198 291.42 133.375 292.392 134.612C293.363 135.76 293.187 137.527 291.95 138.498Z" fill="url(#paint50_linear)"/>
<path d="M223.58 139.647L215.718 129.753C214.747 128.517 214.923 126.838 216.16 125.867C217.397 124.895 219.075 125.072 220.047 126.308L227.908 136.202C228.88 137.438 228.703 139.117 227.467 140.088C226.318 141.06 224.552 140.883 223.58 139.647Z" fill="url(#paint51_linear)"/>
<path d="M279.848 210.402L271.987 200.508C271.015 199.272 271.192 197.593 272.428 196.622C273.665 195.65 275.343 195.827 276.315 197.063L284.177 206.957C285.148 208.193 284.972 209.872 283.735 210.843C282.498 211.815 280.82 211.55 279.848 210.402Z" fill="url(#paint52_linear)"/>
<path d="M213.068 99.3666L199.111 110.497L192.663 115.62C191.603 116.503 190.013 116.327 189.041 115.267L178.353 103.165C177.381 102.017 177.558 100.338 178.706 99.3666L184.625 94.685L199.818 82.5833C200.966 81.7 202.645 81.8766 203.528 83.025L213.598 95.6566C214.393 96.805 214.216 98.4833 213.068 99.3666Z" fill="url(#paint53_linear)"/>
<path d="M199.111 110.497L192.663 115.62C191.603 116.503 190.013 116.327 189.041 115.267L178.353 103.165C177.381 102.017 177.558 100.338 178.706 99.3667L184.625 94.6851L199.111 110.497Z" fill="url(#paint54_linear)"/>
<path d="M251.758 176.658C255.807 176.658 259.09 173.376 259.09 169.327C259.09 165.278 255.807 161.995 251.758 161.995C247.709 161.995 244.426 165.278 244.426 169.327C244.426 173.376 247.709 176.658 251.758 176.658Z" fill="#A12168"/>
<path d="M310.941 122.068C310.235 122.068 309.616 121.803 309.086 121.273C294.423 104.048 272.958 94.155 250.345 94.155C239.215 94.155 228.438 96.4516 218.456 101.045C217.308 101.575 216.248 102.105 215.1 102.635C213.951 103.253 212.538 102.812 211.92 101.575C211.301 100.427 211.743 99.0133 212.98 98.395C214.128 97.7766 215.365 97.2466 216.513 96.6283C227.201 91.77 238.596 89.2966 250.433 89.2966C274.46 89.2966 297.25 99.8083 312.796 118.093C313.68 119.065 313.503 120.567 312.531 121.45C312.001 121.892 311.471 122.068 310.941 122.068Z" fill="#3F48A5"/>
<path d="M186.303 208.9C187.01 208.9 187.628 209.253 188.07 209.872C201.673 227.98 222.431 239.198 245.045 240.523C256.175 241.23 267.04 239.552 277.286 235.577C278.435 235.135 279.583 234.693 280.731 234.163C281.968 233.633 283.381 234.163 283.911 235.4C284.441 236.637 283.911 238.05 282.675 238.58C281.438 239.11 280.201 239.64 279.053 240.082C268.1 244.322 256.616 246 244.78 245.293C220.753 243.792 198.758 231.955 184.271 212.698C183.476 211.638 183.653 210.137 184.713 209.342C185.243 208.988 185.773 208.812 186.303 208.9Z" fill="#3F48A5"/>
<defs>
<linearGradient id="paint0_linear" x1="267.382" y1="185.247" x2="339.93" y2="174.981" gradientUnits="userSpaceOnUse">
<stop stop-color="#F0CBDD"/>
<stop offset="0.9946" stop-color="#FAEBF3"/>
</linearGradient>
<linearGradient id="paint1_linear" x1="286.766" y1="166.441" x2="310.261" y2="164.519" gradientUnits="userSpaceOnUse">
<stop stop-color="#F0CBDD"/>
<stop offset="0.9946" stop-color="#FAEBF3"/>
</linearGradient>
<linearGradient id="paint2_linear" x1="110.927" y1="116.103" x2="168.831" y2="151.658" gradientUnits="userSpaceOnUse">
<stop stop-color="#F0CBDD"/>
<stop offset="0.9946" stop-color="#FAEBF3"/>
</linearGradient>
<linearGradient id="paint3_linear" x1="94.8127" y1="136.221" x2="99.0926" y2="120.979" gradientUnits="userSpaceOnUse">
<stop stop-color="#F0CBDD"/>
<stop offset="0.9946" stop-color="#FAEBF3"/>
</linearGradient>
<linearGradient id="paint4_linear" x1="79.8499" y1="213.243" x2="58.001" y2="215.431" gradientUnits="userSpaceOnUse">
<stop stop-color="#ED4527"/>
<stop offset="0.9946" stop-color="#F26A41"/>
</linearGradient>
<linearGradient id="paint5_linear" x1="332.77" y1="195.088" x2="357.059" y2="144.676" gradientUnits="userSpaceOnUse">
<stop stop-color="#F0CBDD"/>
<stop offset="0.9946" stop-color="#FAEBF3"/>
</linearGradient>
<linearGradient id="paint6_linear" x1="78.2826" y1="142.218" x2="88.1027" y2="142.218" gradientUnits="userSpaceOnUse">
<stop stop-color="#ECEEFB"/>
<stop offset="1" stop-color="#E3E0FD"/>
</linearGradient>
<linearGradient id="paint7_linear" x1="72.6607" y1="117.091" x2="109.155" y2="152.14" gradientUnits="userSpaceOnUse">
<stop stop-color="#F0CBDD"/>
<stop offset="0.9946" stop-color="#FAEBF3"/>
</linearGradient>
<linearGradient id="paint8_linear" x1="277.891" y1="244.259" x2="327.844" y2="214.47" gradientUnits="userSpaceOnUse">
<stop stop-color="#F0CBDD"/>
<stop offset="0.9946" stop-color="#FAEBF3"/>
</linearGradient>
<linearGradient id="paint9_linear" x1="145.524" y1="298.499" x2="237.794" y2="267.335" gradientUnits="userSpaceOnUse">
<stop stop-color="#F0CBDD"/>
<stop offset="0.9946" stop-color="#FAEBF3"/>
</linearGradient>
<linearGradient id="paint10_linear" x1="246.259" y1="244.639" x2="232.6" y2="374.403" gradientUnits="userSpaceOnUse">
<stop stop-color="#ECEEFB"/>
<stop offset="1" stop-color="#E3E0FD"/>
</linearGradient>
<linearGradient id="paint11_linear" x1="311.932" y1="251.552" x2="298.272" y2="381.316" gradientUnits="userSpaceOnUse">
<stop stop-color="#ECEEFB"/>
<stop offset="1" stop-color="#E3E0FD"/>
</linearGradient>
<linearGradient id="paint12_linear" x1="174.412" y1="143.824" x2="174.412" y2="484.23" gradientUnits="userSpaceOnUse">
<stop stop-color="#FBB666"/>
<stop offset="1" stop-color="#F89E44"/>
</linearGradient>
<linearGradient id="paint13_linear" x1="189.043" y1="334.002" x2="194.706" y2="349.501" gradientUnits="userSpaceOnUse">
<stop stop-color="#FDC876"/>
<stop offset="0.9892" stop-color="#F6DD9B"/>
</linearGradient>
<linearGradient id="paint14_linear" x1="91.1707" y1="175.105" x2="84.1437" y2="365.915" gradientUnits="userSpaceOnUse">
<stop stop-color="#FBB666"/>
<stop offset="1" stop-color="#F89E44"/>
</linearGradient>
<linearGradient id="paint15_linear" x1="125.698" y1="185.483" x2="125.369" y2="200.364" gradientUnits="userSpaceOnUse">
<stop stop-color="#F27C7D"/>
<stop offset="1" stop-color="#F6A2A4"/>
</linearGradient>
<linearGradient id="paint16_linear" x1="146.608" y1="151.628" x2="146.795" y2="182.91" gradientUnits="userSpaceOnUse">
<stop offset="0.00537634" stop-color="#6A0F35"/>
<stop offset="1" stop-color="#772743"/>
</linearGradient>
<linearGradient id="paint17_linear" x1="168.585" y1="161.658" x2="142.655" y2="167.809" gradientUnits="userSpaceOnUse">
<stop stop-color="#F27C7D"/>
<stop offset="1" stop-color="#F7B0AC"/>
</linearGradient>
<linearGradient id="paint18_linear" x1="153.471" y1="146.747" x2="153.471" y2="138.12" gradientUnits="userSpaceOnUse">
<stop stop-color="#F27C7D"/>
<stop offset="1" stop-color="#F7B0AC"/>
</linearGradient>
<linearGradient id="paint19_linear" x1="109.527" y1="164.048" x2="105.507" y2="192.295" gradientUnits="userSpaceOnUse">
<stop offset="0.00537634" stop-color="#6A0F35"/>
<stop offset="1" stop-color="#772743"/>
</linearGradient>
<linearGradient id="paint20_linear" x1="81.9971" y1="161.657" x2="107.927" y2="167.809" gradientUnits="userSpaceOnUse">
<stop stop-color="#F27C7D"/>
<stop offset="1" stop-color="#F7B0AC"/>
</linearGradient>
<linearGradient id="paint21_linear" x1="97.1111" y1="146.747" x2="97.1111" y2="138.119" gradientUnits="userSpaceOnUse">
<stop stop-color="#F27C7D"/>
<stop offset="1" stop-color="#F7B0AC"/>
</linearGradient>
<linearGradient id="paint22_linear" x1="89.4855" y1="182.67" x2="114.892" y2="165.741" gradientUnits="userSpaceOnUse">
<stop stop-color="#F27C7D"/>
<stop offset="1" stop-color="#F7B0AC"/>
</linearGradient>
<linearGradient id="paint23_linear" x1="120.168" y1="153.372" x2="118.218" y2="137.31" gradientUnits="userSpaceOnUse">
<stop offset="0.00537634" stop-color="#F05A53"/>
<stop offset="1" stop-color="#F0635E"/>
</linearGradient>
<linearGradient id="paint24_linear" x1="111.102" y1="154.418" x2="109.069" y2="137.668" gradientUnits="userSpaceOnUse">
<stop offset="0.00537634" stop-color="#6A0F35"/>
<stop offset="1" stop-color="#772743"/>
</linearGradient>
<linearGradient id="paint25_linear" x1="137.105" y1="162.666" x2="112.297" y2="109.935" gradientUnits="userSpaceOnUse">
<stop stop-color="#EC4728"/>
<stop offset="1" stop-color="#F16843"/>
</linearGradient>
<linearGradient id="paint26_linear" x1="128.345" y1="128.623" x2="128.345" y2="515.98" gradientUnits="userSpaceOnUse">
<stop stop-color="#FBB666"/>
<stop offset="1" stop-color="#F89E44"/>
</linearGradient>
<linearGradient id="paint27_linear" x1="126.559" y1="193.718" x2="126.559" y2="222.353" gradientUnits="userSpaceOnUse">
<stop stop-color="#FBB666"/>
<stop offset="1" stop-color="#F89E44"/>
</linearGradient>
<linearGradient id="paint28_linear" x1="118.315" y1="277.1" x2="87.5812" y2="269.923" gradientUnits="userSpaceOnUse">
<stop stop-color="#B22878"/>
<stop offset="1" stop-color="#C24A9A"/>
</linearGradient>
<linearGradient id="paint29_linear" x1="137.197" y1="277.043" x2="168.385" y2="269.76" gradientUnits="userSpaceOnUse">
<stop stop-color="#B22878"/>
<stop offset="1" stop-color="#C24A9A"/>
</linearGradient>
<linearGradient id="paint30_linear" x1="125.558" y1="176.848" x2="123.954" y2="165.118" gradientUnits="userSpaceOnUse">
<stop offset="0.00537634" stop-color="#F05A53"/>
<stop offset="1" stop-color="#F0635E"/>
</linearGradient>
<linearGradient id="paint31_linear" x1="125.044" y1="183.589" x2="125.237" y2="179.613" gradientUnits="userSpaceOnUse">
<stop offset="0.00537634" stop-color="#F05A53"/>
<stop offset="1" stop-color="#F0635E"/>
</linearGradient>
<linearGradient id="paint32_linear" x1="120.285" y1="277.361" x2="131.002" y2="252.355" gradientUnits="userSpaceOnUse">
<stop stop-color="#F27C7D"/>
<stop offset="1" stop-color="#F7B0AC"/>
</linearGradient>
<linearGradient id="paint33_linear" x1="97.0511" y1="231.873" x2="97.0511" y2="333.765" gradientUnits="userSpaceOnUse">
<stop stop-color="#FBB666"/>
<stop offset="1" stop-color="#F89E44"/>
</linearGradient>
<linearGradient id="paint34_linear" x1="107.759" y1="264.843" x2="125.606" y2="259.982" gradientUnits="userSpaceOnUse">
<stop stop-color="#FDC876"/>
<stop offset="0.9892" stop-color="#F6DD9B"/>
</linearGradient>
<linearGradient id="paint35_linear" x1="146.241" y1="259.851" x2="148.272" y2="225.083" gradientUnits="userSpaceOnUse">
<stop stop-color="#B22878"/>
<stop offset="1" stop-color="#C24A9A"/>
</linearGradient>
<linearGradient id="paint36_linear" x1="126.145" y1="251.717" x2="135.83" y2="268.467" gradientUnits="userSpaceOnUse">
<stop stop-color="#19207D"/>
<stop offset="1" stop-color="#0E125C"/>
</linearGradient>
<linearGradient id="paint37_linear" x1="123.958" y1="243.33" x2="127.7" y2="251.273" gradientUnits="userSpaceOnUse">
<stop stop-color="#19207D"/>
<stop offset="1" stop-color="#0E125C"/>
</linearGradient>
<linearGradient id="paint38_linear" x1="127.957" y1="252.33" x2="129.088" y2="255.575" gradientUnits="userSpaceOnUse">
<stop stop-color="#19207D"/>
<stop offset="1" stop-color="#0E125C"/>
</linearGradient>
<linearGradient id="paint39_linear" x1="127.521" y1="251.494" x2="128.412" y2="254.049" gradientUnits="userSpaceOnUse">
<stop stop-color="#19207D"/>
<stop offset="1" stop-color="#0E125C"/>
</linearGradient>
<linearGradient id="paint40_linear" x1="127.587" y1="251.527" x2="128.436" y2="253.953" gradientUnits="userSpaceOnUse">
<stop stop-color="#F0CBDD"/>
<stop offset="0.9946" stop-color="#FAEBF3"/>
</linearGradient>
<linearGradient id="paint41_linear" x1="338.392" y1="196.311" x2="256.468" y2="272.52" gradientUnits="userSpaceOnUse">
<stop stop-color="#ED4527"/>
<stop offset="0.9946" stop-color="#F26A41"/>
</linearGradient>
<linearGradient id="paint42_linear" x1="187.846" y1="96.4803" x2="159.643" y2="43.1042" gradientUnits="userSpaceOnUse">
<stop stop-color="#ECEEFB"/>
<stop offset="1" stop-color="#E3E0FD"/>
</linearGradient>
<linearGradient id="paint43_linear" x1="160.338" y1="27.1622" x2="180.819" y2="89.5578" gradientUnits="userSpaceOnUse">
<stop stop-color="#ECEEFB"/>
<stop offset="1" stop-color="#E3E0FD"/>
</linearGradient>
<linearGradient id="paint44_linear" x1="265.957" y1="195.842" x2="280.246" y2="222.515" gradientUnits="userSpaceOnUse">
<stop stop-color="#19207D"/>
<stop offset="1" stop-color="#0E125C"/>
</linearGradient>
<linearGradient id="paint45_linear" x1="254.327" y1="176.357" x2="202.886" y2="66.8071" gradientUnits="userSpaceOnUse">
<stop stop-color="#19207D"/>
<stop offset="1" stop-color="#0E125C"/>
</linearGradient>
<linearGradient id="paint46_linear" x1="248.585" y1="232.269" x2="250.966" y2="184.639" gradientUnits="userSpaceOnUse">
<stop stop-color="#19207D"/>
<stop offset="1" stop-color="#0E125C"/>
</linearGradient>
<linearGradient id="paint47_linear" x1="292.543" y1="39.0233" x2="232.195" y2="231.672" gradientUnits="userSpaceOnUse">
<stop stop-color="#F0CBDD"/>
<stop offset="0.9946" stop-color="#FAEBF3"/>
</linearGradient>
<linearGradient id="paint48_linear" x1="256.579" y1="141.716" x2="243.581" y2="234.094" gradientUnits="userSpaceOnUse">
<stop stop-color="#F0CBDD"/>
<stop offset="0.9946" stop-color="#FAEBF3"/>
</linearGradient>
<linearGradient id="paint49_linear" x1="217.123" y1="94.9252" x2="214.741" y2="190.186" gradientUnits="userSpaceOnUse">
<stop stop-color="#19207D"/>
<stop offset="1" stop-color="#0E125C"/>
</linearGradient>
<linearGradient id="paint50_linear" x1="286.382" y1="96.6568" x2="284" y2="191.917" gradientUnits="userSpaceOnUse">
<stop stop-color="#19207D"/>
<stop offset="1" stop-color="#0E125C"/>
</linearGradient>
<linearGradient id="paint51_linear" x1="222.768" y1="95.0665" x2="220.386" y2="190.327" gradientUnits="userSpaceOnUse">
<stop stop-color="#19207D"/>
<stop offset="1" stop-color="#0E125C"/>
</linearGradient>
<linearGradient id="paint52_linear" x1="280.737" y1="96.5161" x2="278.355" y2="191.776" gradientUnits="userSpaceOnUse">
<stop stop-color="#19207D"/>
<stop offset="1" stop-color="#0E125C"/>
</linearGradient>
<linearGradient id="paint53_linear" x1="200.518" y1="88.8145" x2="189.087" y2="115.011" gradientUnits="userSpaceOnUse">
<stop stop-color="#19207D"/>
<stop offset="1" stop-color="#0E125C"/>
</linearGradient>
<linearGradient id="paint54_linear" x1="188.419" y1="83.399" x2="188.419" y2="106.738" gradientUnits="userSpaceOnUse">
<stop stop-color="#19207D"/>
<stop offset="1" stop-color="#0E125C"/>
</linearGradient>
</defs>
</svg>
