<svg width="173" height="180" viewBox="0 0 173 180" fill="none" xmlns="http://www.w3.org/2000/svg">
<path d="M15.714 83.4082C15.4079 83.4082 15.1528 83.2552 15.0507 82.949C14.6936 82.0307 14.3364 81.1123 14.0303 80.2449C13.8773 79.8878 14.0813 79.4796 14.4895 79.3266C14.8466 79.1735 15.2548 79.3776 15.4079 79.7858C15.714 80.6531 16.0711 81.5715 16.4283 82.4388C16.5813 82.796 16.3772 83.2041 16.0201 83.3572C15.9181 83.4082 15.816 83.4082 15.714 83.4082Z" fill="url(#paint0_linear)"/>
<path d="M13.1121 75.398C12.8059 75.398 12.4998 75.1939 12.3978 74.8368C11.9386 73 11.5815 71.1633 11.3264 69.3266C11.2753 68.9184 11.5304 68.5613 11.9386 68.5102C12.3468 68.4592 12.7039 68.7143 12.7549 69.1225C13.01 70.9082 13.3672 72.7449 13.8264 74.5306C13.9284 74.9388 13.6733 75.2959 13.3162 75.398C13.2141 75.398 13.1631 75.398 13.1121 75.398ZM11.4794 64.4286C11.1223 64.4286 10.7651 64.1225 10.7651 63.7653C10.7141 62.6939 10.6631 61.5715 10.6631 60.449C10.6631 59.6837 10.6631 58.8674 10.7141 58.1021C10.7141 57.6939 11.0713 57.3878 11.4794 57.3878C11.8876 57.3878 12.1937 57.7449 12.1937 58.1531C12.1427 58.9184 12.1427 59.6837 12.1427 60.449C12.1427 61.5204 12.1937 62.5919 12.2447 63.6633C12.1937 64.0204 11.8876 64.3776 11.4794 64.4286ZM11.8876 53.3061C11.8366 53.3061 11.8366 53.3061 11.7855 53.3061C11.3774 53.2551 11.1223 52.898 11.1733 52.4898C11.4284 50.6531 11.7345 48.7653 12.1937 46.9286C12.2957 46.5204 12.6529 46.3163 13.0611 46.3674C13.4692 46.4694 13.6733 46.8266 13.6223 47.2347C13.2141 49.0204 12.908 50.8572 12.6529 52.6429C12.5508 53.051 12.2447 53.3061 11.8876 53.3061ZM14.3876 42.4898C14.3366 42.4898 14.2345 42.4898 14.1835 42.4388C13.8264 42.3368 13.6223 41.9286 13.7243 41.5204C14.3366 39.7347 14.9998 38 15.7651 36.2653C15.9182 35.9082 16.3264 35.7551 16.7345 35.9082C17.0917 36.0612 17.2447 36.4694 17.0917 36.8776C16.3774 38.5612 15.6631 40.2959 15.1019 41.9796C14.9488 42.2857 14.6937 42.4898 14.3876 42.4898ZM18.8774 32.2857C18.7753 32.2857 18.6223 32.2347 18.5202 32.1837C18.1631 31.9796 18.061 31.5714 18.2651 31.2143C19.1835 29.5817 20.2039 28 21.2243 26.4184C21.4284 26.1123 21.8876 26.0102 22.2447 26.2143C22.5508 26.4184 22.6529 26.8776 22.4488 27.2347C21.4284 28.7143 20.408 30.2959 19.5406 31.8776C19.3876 32.1837 19.1325 32.2857 18.8774 32.2857ZM25.2039 23.1531C25.0508 23.1531 24.8978 23.1021 24.7447 23C24.4386 22.7449 24.3876 22.2857 24.6427 21.9796C25.8672 20.551 27.1427 19.1735 28.4692 17.847C28.7753 17.5919 29.1835 17.5919 29.4896 17.847C29.7447 18.1531 29.7447 18.5612 29.4896 18.8674C28.2141 20.1429 26.9386 21.5204 25.7651 22.898C25.6121 23.051 25.408 23.1531 25.2039 23.1531ZM33.1121 15.347C32.908 15.347 32.7039 15.2449 32.5508 15.0919C32.2957 14.7857 32.3468 14.3266 32.6529 14.0714C34.0815 12.898 35.6121 11.7755 37.1937 10.7041C37.4998 10.5 37.959 10.551 38.2141 10.9082C38.4182 11.2143 38.3672 11.6735 38.01 11.9286C36.4794 12.949 34.9998 14.0204 33.5713 15.1939C33.4692 15.2959 33.2651 15.347 33.1121 15.347ZM100.867 10.5C100.765 10.5 100.612 10.449 100.51 10.398C98.9284 9.4796 97.2957 8.56124 95.6631 7.79593C95.3059 7.64287 95.1529 7.18369 95.3059 6.82654C95.459 6.4694 95.9182 6.31634 96.2753 6.4694C97.959 7.28573 99.6427 8.20409 101.224 9.12246C101.581 9.32654 101.683 9.78573 101.479 10.0919C101.377 10.347 101.122 10.5 100.867 10.5ZM42.3468 9.17348C42.0917 9.17348 41.8366 9.02042 41.7345 8.81634C41.5304 8.4592 41.6835 8.05103 42.0406 7.84695C43.6733 6.9796 45.408 6.11226 47.0917 5.39798C47.4488 5.24492 47.857 5.39798 48.061 5.75512C48.2141 6.11226 48.061 6.52042 47.7039 6.7245C46.0202 7.43879 44.3366 8.25511 42.7549 9.12246C42.6019 9.12246 42.4998 9.17348 42.3468 9.17348ZM90.8672 5.70409C90.7651 5.70409 90.7141 5.7041 90.6121 5.65308C88.8774 5.04083 87.1427 4.4796 85.357 4.02042C84.9488 3.91838 84.7447 3.51022 84.8468 3.15307C84.9488 2.74491 85.357 2.54083 85.7141 2.64287C87.4998 3.10205 89.3366 3.7143 91.0713 4.32654C91.4284 4.47961 91.6325 4.88777 91.4794 5.24491C91.4284 5.50002 91.1733 5.70409 90.8672 5.70409ZM52.6019 4.83675C52.2957 4.83675 51.9896 4.63267 51.9386 4.32654C51.8366 3.9694 52.0406 3.56124 52.3978 3.40818C54.1835 2.84695 56.0202 2.33675 57.857 1.97961C58.2651 1.87757 58.6223 2.13267 58.7243 2.54083C58.8264 2.94899 58.5713 3.30613 58.1631 3.40818C56.3774 3.81634 54.5917 4.27552 52.857 4.83675C52.7549 4.78573 52.6529 4.83675 52.6019 4.83675ZM80.1019 2.84695C80.0508 2.84695 79.9998 2.84695 79.9998 2.84695C78.2141 2.54083 76.3774 2.33675 74.5406 2.23471C74.1325 2.18369 73.8263 1.87757 73.8774 1.4694C73.9284 1.06124 74.2345 0.755115 74.6427 0.806135C76.5304 0.959196 78.4182 1.16328 80.2549 1.4694C80.6631 1.52042 80.9182 1.92859 80.8672 2.28573C80.7651 2.59185 80.459 2.84695 80.1019 2.84695ZM63.4692 2.48981C63.1121 2.48981 62.8059 2.23471 62.7549 1.87756C62.7039 1.4694 63.01 1.11226 63.3672 1.06124C65.2039 0.857156 67.0917 0.704097 68.9794 0.653076C69.3876 0.653076 69.6937 0.959196 69.6937 1.36736C69.6937 1.77552 69.3876 2.08165 68.9794 2.08165C67.1427 2.13267 65.3059 2.23471 63.5202 2.48981C63.5202 2.48981 63.4692 2.48981 63.4692 2.48981Z" fill="url(#paint1_linear)"/>
<path d="M107.806 15.3979C107.653 15.3979 107.5 15.3469 107.347 15.2449C106.632 14.6326 105.867 14.0714 105.102 13.5102C104.796 13.2551 104.694 12.8469 104.949 12.4898C105.204 12.1837 105.612 12.0816 105.969 12.3367C106.734 12.8979 107.5 13.5102 108.265 14.1224C108.571 14.3775 108.622 14.8367 108.367 15.1428C108.214 15.2959 108.01 15.3979 107.806 15.3979Z" fill="url(#paint2_linear)"/>
<path d="M113.061 20.449L105 18.8164C104.336 18.8164 103.979 18.0001 104.489 17.5409L110.765 11.2654C111.224 10.8062 112.041 11.1123 112.041 11.7756L113.775 19.6837C113.775 20.1429 113.469 20.449 113.061 20.449Z" fill="url(#paint3_linear)"/>
<path d="M129.133 163.357C128.98 163.357 128.827 163.306 128.725 163.255C128.419 163.051 128.317 162.592 128.521 162.235C129.031 161.469 129.541 160.653 130 159.837C130.204 159.48 130.664 159.378 130.97 159.582C131.327 159.786 131.429 160.245 131.225 160.551C130.715 161.418 130.204 162.235 129.643 163.051C129.592 163.204 129.337 163.357 129.133 163.357Z" fill="url(#paint4_linear)"/>
<path d="M96.3781 179.684C96.3781 179.684 96.3271 179.684 96.3781 179.684C94.4904 179.582 92.6537 179.378 90.8169 179.02C90.4088 178.969 90.1537 178.561 90.2557 178.153C90.3067 177.745 90.7149 177.49 91.123 177.592C92.8577 177.949 94.6435 178.153 96.4292 178.255C96.8373 178.255 97.1434 178.612 97.0924 179.02C97.0924 179.378 96.7353 179.684 96.3781 179.684ZM101.837 179.531C101.48 179.531 101.174 179.276 101.123 178.867C101.072 178.459 101.378 178.102 101.786 178.102C103.572 177.949 105.358 177.643 107.041 177.184C107.45 177.082 107.807 177.337 107.909 177.694C108.011 178.102 107.756 178.459 107.399 178.561C105.613 179.02 103.776 179.327 101.939 179.48C101.888 179.531 101.837 179.531 101.837 179.531ZM85.6639 177.592C85.5618 177.592 85.5108 177.592 85.4088 177.541C83.6741 176.929 81.9394 176.163 80.3067 175.296C79.9496 175.092 79.7965 174.684 80.0006 174.327C80.2047 173.969 80.6128 173.816 80.97 174.02C82.5516 174.837 84.1843 175.551 85.8679 176.163C86.2251 176.316 86.4292 176.725 86.3271 177.082C86.2761 177.388 85.97 177.592 85.6639 177.592ZM112.399 176.929C112.092 176.929 111.837 176.776 111.735 176.469C111.582 176.112 111.735 175.704 112.143 175.551C113.776 174.888 115.409 174.071 116.939 173.153C117.297 172.949 117.705 173.051 117.909 173.408C118.113 173.765 118.011 174.173 117.654 174.378C116.072 175.347 114.388 176.163 112.654 176.878C112.552 176.878 112.501 176.929 112.399 176.929ZM121.735 171.367C121.531 171.367 121.327 171.265 121.174 171.112C120.919 170.806 120.97 170.347 121.276 170.092C122.654 168.969 123.98 167.745 125.154 166.418C125.409 166.112 125.868 166.112 126.174 166.367C126.48 166.622 126.48 167.082 126.225 167.388C124.95 168.765 123.623 170.041 122.194 171.214C122.092 171.316 121.888 171.367 121.735 171.367Z" fill="url(#paint5_linear)"/>
<path d="M76.0207 172.49C75.8677 172.49 75.7146 172.439 75.6126 172.337C74.8473 171.776 74.082 171.163 73.3167 170.5C73.0105 170.245 72.9595 169.786 73.2146 169.48C73.4697 169.173 73.9289 169.122 74.235 169.378C74.9493 169.99 75.7146 170.602 76.4289 171.112C76.735 171.367 76.8371 171.776 76.582 172.133C76.4799 172.388 76.2758 172.49 76.0207 172.49Z" fill="url(#paint6_linear)"/>
<path d="M67.3981 164.837L75.6124 165.296C76.2757 165.194 76.7349 165.959 76.3267 166.469L71.0206 173.612C70.6124 174.122 69.7961 173.918 69.6941 173.255L66.7859 165.653C66.6838 165.245 66.99 164.888 67.3981 164.837Z" fill="url(#paint7_linear)"/>
<path d="M35.4082 106.367H9.33675C8.36736 106.367 7.60205 105.602 7.60205 104.633V88.4592C7.60205 87.4898 8.36736 86.7245 9.33675 86.7245H35.4082C36.3776 86.7245 37.1429 87.4898 37.1429 88.4592V104.633C37.1429 105.602 36.3776 106.367 35.4082 106.367Z" fill="url(#paint8_linear)"/>
<path d="M23.3164 104.531L30.9185 111.878C31.5307 112.49 32.6021 112.031 32.6021 111.163V104.378L23.3164 104.531Z" fill="url(#paint9_linear)"/>
<path d="M31.5307 94.4286H13.6735C13.2653 94.4286 12.9082 94.0714 12.9082 93.6633C12.9082 93.2551 13.2653 92.8979 13.6735 92.8979H31.5307C31.9388 92.8979 32.296 93.2551 32.296 93.6633C32.347 94.0714 31.9898 94.4286 31.5307 94.4286Z" fill="white"/>
<path d="M31.5307 99.9897H13.6735C13.2653 99.9897 12.9082 99.6326 12.9082 99.2244C12.9082 98.8163 13.2653 98.4591 13.6735 98.4591H31.5307C31.9388 98.4591 32.296 98.8163 32.296 99.2244C32.347 99.6836 31.9898 99.9897 31.5307 99.9897Z" fill="white"/>
<path d="M160.153 105.5C156.276 108.51 146.786 111.265 140.867 110.5C135.459 109.786 134.541 106.775 141.378 105.755C142.398 105.347 141.939 104.224 141.531 103.816C139.898 102.133 137.806 101.571 135.816 101.418C134.439 101.418 133.163 101.316 132.041 101.061C126.174 99.8878 125.918 96.2653 135.102 96.2653C144.286 96.2653 157.296 85.8571 161.429 83.4082C167.908 79.5306 171.582 84.3265 155.816 94.7347C155.408 94.9898 150.816 98 150.357 98.2551C148.725 99.2245 147.551 101.112 149.337 101.878C152.653 103.408 158.929 98.5102 160.867 97.1837C166.99 92.898 166.123 100.908 160.153 105.5Z" fill="url(#paint10_linear)"/>
<path d="M169.082 89.0204C167.143 90.8061 166.276 91.7754 167.041 93.0509C167.806 94.3265 168.674 94.2754 170.663 92.2346C173.316 89.5816 171.123 87.2347 169.082 89.0204Z" fill="url(#paint11_linear)"/>
<path d="M167.5 102.184C165.51 103.765 163.265 106.316 159.592 108.561C155.306 111.214 156.122 111.622 158.878 111.01C161.684 110.398 165.816 107.49 167.449 105.755C170.612 102.388 169.184 100.857 167.5 102.184Z" fill="url(#paint12_linear)"/>
<path d="M166.837 105.5V148.051C166.837 149.939 165.306 151.52 163.367 151.52H83.9797C82.0919 151.52 80.5103 149.99 80.5103 148.051V105.5C80.5103 103.612 82.0409 102.031 83.9797 102.031H163.367C165.306 102.082 166.837 103.612 166.837 105.5Z" fill="url(#paint13_linear)"/>
<path d="M116.225 102.082V151.571H83.9797C82.0919 151.571 80.5103 150.041 80.5103 148.102V105.551C80.5103 103.663 82.0409 102.082 83.9797 102.082H116.225V102.082Z" fill="url(#paint14_linear)"/>
<path d="M153.673 127.49H128.826C128.163 127.49 127.653 126.98 127.653 126.316C127.653 125.653 128.163 125.143 128.826 125.143H153.673C154.336 125.143 154.847 125.653 154.847 126.316C154.847 126.98 154.336 127.49 153.673 127.49Z" fill="url(#paint15_linear)"/>
<path d="M153.673 133.153H128.826C128.163 133.153 127.653 132.643 127.653 131.98C127.653 131.316 128.163 130.806 128.826 130.806H153.673C154.336 130.806 154.847 131.316 154.847 131.98C154.847 132.592 154.336 133.153 153.673 133.153Z" fill="url(#paint16_linear)"/>
<path d="M153.673 138.765H128.826C128.163 138.765 127.653 138.255 127.653 137.592C127.653 136.929 128.163 136.418 128.826 136.418H153.673C154.336 136.418 154.847 136.929 154.847 137.592C154.847 138.255 154.336 138.765 153.673 138.765Z" fill="url(#paint17_linear)"/>
<path d="M148.928 118.714H130.204C128.775 118.714 127.653 117.592 127.653 116.163C127.653 114.735 128.775 113.612 130.204 113.612H148.928C150.357 113.612 151.479 114.735 151.479 116.163C151.53 117.541 150.357 118.714 148.928 118.714Z" fill="url(#paint18_linear)"/>
<path d="M90.6124 143.255H116.072C117.143 143.255 117.959 142.388 117.959 141.367V112.439C117.959 111.367 117.092 110.551 116.072 110.551H90.6124C89.5409 110.551 88.7246 111.418 88.7246 112.439V141.367C88.7246 142.388 89.5409 143.255 90.6124 143.255Z" fill="url(#paint19_linear)"/>
<path d="M112.398 36.9286V155.398C112.398 157.388 110.816 158.969 108.826 158.969H37.8571C35.8673 158.969 34.2856 157.388 34.2856 155.398V36.9286C34.2856 34.9388 35.8673 33.3572 37.8571 33.3572H108.877C110.816 33.3572 112.398 34.9898 112.398 36.9286Z" fill="url(#paint20_linear)"/>
<path d="M112.398 36.9286V38.8674H34.2349V36.9286C34.2349 34.9388 35.8165 33.3572 37.8063 33.3572H108.827C110.816 33.3572 112.398 34.9898 112.398 36.9286Z" fill="url(#paint21_linear)"/>
<path d="M34.2349 155.602V153.663H112.398V155.602C112.398 157.592 110.816 159.174 108.827 159.174H37.8573C35.8675 159.174 34.2349 157.541 34.2349 155.602Z" fill="url(#paint22_linear)"/>
<path d="M97.6732 99H43.3268C42.1634 99 41 98.1428 41 97C41 96 41.9972 95 43.3268 95H97.6732C98.8366 95 100 95.8571 100 97C99.8338 98.1428 98.8366 99 97.6732 99Z" fill="url(#paint23_linear)"/>
<path d="M97.6732 73H43.3268C42.1634 73 41 72.1428 41 71C41 70 41.9972 69 43.3268 69H97.6732C98.8366 69 100 69.8571 100 71C99.8338 72.1428 98.8366 73 97.6732 73Z" fill="url(#paint24_linear)"/>
<path d="M97.6732 82H43.3268C42.1634 82 41 81.1428 41 80C41 79 41.9972 78 43.3268 78H97.6732C98.8366 78 100 78.8571 100 80C99.8338 81.1428 98.8366 82 97.6732 82Z" fill="url(#paint25_linear)"/>
<path d="M97.6732 90H43.3268C42.1634 90 41 89.1428 41 88C41 87 41.9972 86 43.3268 86H97.6732C98.8366 86 100 86.8571 100 88C99.8338 89.1428 98.8366 90 97.6732 90Z" fill="url(#paint26_linear)"/>
<path d="M97.6732 65H43.3268C42.1634 65 41 64.1428 41 63C41 62 41.9972 61 43.3268 61H97.6732C98.8366 61 100 61.8571 100 63C99.8338 64.1428 98.8366 65 97.6732 65Z" fill="url(#paint27_linear)"/>
<path d="M27.602 134.378C29.1837 135.347 29.0816 136.929 26.6836 136.725C24.2857 136.52 21.1734 135.704 20.9694 137.337C20.8163 138.969 31.5306 146.623 40.7653 150.806C50.051 154.99 52.2449 154.48 51.6326 158.204C51.0714 161.929 46.9898 162.796 39.0816 159.48C31.1734 156.163 18.2143 147.082 15.153 142.388C12.0918 137.694 11.6836 135.959 14.1836 135.755C16.6836 135.551 18.7755 135.041 17.3469 133.663C15.8673 132.235 10.7653 127.439 10.7143 125.398C10.6122 123.357 10.9694 123.459 13.6734 125.449C16.3775 127.439 24.6939 132.592 27.602 134.378Z" fill="url(#paint28_linear)"/>
<path d="M0.663046 122.694C-1.47981 124.429 3.061 129.735 5.45896 131.01C7.85692 132.286 8.52019 129.99 6.27529 126.265C4.03039 122.541 1.93856 121.673 0.663046 122.694Z" fill="url(#paint29_linear)"/>
<path d="M155.867 63.7652V94.0713C155.867 95.2958 155.102 96.3162 154.03 96.6734C153.724 96.7754 153.418 96.8775 153.061 96.8775H108.571C108.265 96.8775 107.959 96.8265 107.704 96.7244C106.581 96.3673 105.765 95.2958 105.765 94.0713V63.7652C105.765 62.2346 107.041 60.9591 108.571 60.9591H153.061C154.03 60.9591 154.898 61.4693 155.408 62.2346C155.714 62.6938 155.867 63.255 155.867 63.7652Z" fill="url(#paint30_linear)"/>
<path d="M106.224 62.4387L126.224 40.1428C128.724 37.3367 133.163 37.3367 135.663 40.1428L155.357 62.2857L106.224 62.4387Z" fill="url(#paint31_linear)"/>
<path d="M155.867 63.7652V94.0713C155.867 95.602 154.591 96.8775 153.061 96.8775H149.132L135.357 84.2244C134.183 83.153 134.234 81.3673 135.357 80.2958L154.795 62.6428C155 62.4387 155.204 62.3367 155.459 62.1836C155.714 62.6938 155.867 63.255 155.867 63.7652Z" fill="url(#paint32_linear)"/>
<path d="M105.816 63.7652V94.0713C105.816 95.602 107.091 96.8775 108.622 96.8775H112.551L126.326 84.2244C127.5 83.153 127.449 81.3673 126.326 80.2958L106.887 62.6428C106.683 62.4387 106.479 62.3367 106.224 62.1836C105.969 62.6938 105.816 63.255 105.816 63.7652Z" fill="url(#paint33_linear)"/>
<path d="M154.031 96.7244C153.725 96.8265 153.418 96.9285 153.061 96.9285H108.571C108.265 96.9285 107.959 96.8775 107.704 96.7754L127.194 79.2754C129.286 77.3877 132.704 77.3877 134.796 79.2754L154.031 96.7244Z" fill="url(#paint34_linear)"/>
<path d="M167.704 59.6326C163.418 64.6836 158.826 72.1836 150.714 79.6326C141.224 88.3571 143.316 89.1224 149.949 86.2653C156.581 83.4081 165.663 74.1224 169.03 68.8673C175.51 58.7143 171.326 55.3469 167.704 59.6326Z" fill="url(#paint35_linear)"/>
<path d="M125.663 44.1225C132.088 44.1225 137.296 38.9144 137.296 32.4898C137.296 26.0653 132.088 20.8572 125.663 20.8572C119.239 20.8572 114.031 26.0653 114.031 32.4898C114.031 38.9144 119.239 44.1225 125.663 44.1225Z" fill="url(#paint36_linear)"/>
<path d="M122.908 38.3572C122.653 38.3572 122.398 38.2551 122.245 38.0511L117.908 33.6123C117.551 33.2551 117.551 32.6429 117.908 32.2347C118.265 31.8776 118.877 31.8776 119.286 32.2347L122.857 35.9082L130.204 26.3164C130.51 25.9082 131.122 25.8061 131.53 26.1633C131.939 26.4694 132.041 27.0817 131.684 27.4898L123.673 38C123.52 38.2041 123.265 38.3572 122.959 38.3572C122.908 38.3572 122.908 38.3572 122.908 38.3572Z" fill="white"/>
<path d="M92.5306 132.347H52.1735C48.7551 132.347 46 129.592 46 126.173C46 122.755 48.7551 120 52.1735 120H92.5306C95.949 120 98.7041 122.755 98.7041 126.173C98.7041 129.592 95.949 132.347 92.5306 132.347Z" fill="url(#paint37_linear)"/>
<path d="M72.3266 130.51C71.9184 130.51 71.6123 130.204 71.6123 129.796V122.908C71.6123 122.5 71.9184 122.194 72.3266 122.194C72.7348 122.194 73.0409 122.5 73.0409 122.908V129.796C73.0409 130.204 72.7348 130.51 72.3266 130.51Z" fill="white"/>
<path d="M75.7959 127.092H68.9081C68.5 127.092 68.1938 126.786 68.1938 126.378C68.1938 125.969 68.5 125.663 68.9081 125.663H75.7959C76.2041 125.663 76.5102 125.969 76.5102 126.378C76.5102 126.735 76.2041 127.092 75.7959 127.092Z" fill="white"/>
<path d="M80.6939 138.571H64.0102C63.653 138.571 63.2959 138.265 63.2959 137.857C63.2959 137.5 63.602 137.143 64.0102 137.143H80.6939C81.051 137.143 81.4081 137.449 81.4081 137.857C81.3571 138.265 81.051 138.571 80.6939 138.571Z" fill="url(#paint38_linear)"/>
<defs>
<linearGradient id="paint0_linear" x1="13.9767" y1="81.3605" x2="16.439" y2="81.3605" gradientUnits="userSpaceOnUse">
<stop stop-color="#827FCB"/>
<stop offset="1" stop-color="#A8A7E1"/>
</linearGradient>
<linearGradient id="paint1_linear" x1="10.6526" y1="38.022" x2="101.608" y2="38.022" gradientUnits="userSpaceOnUse">
<stop stop-color="#827FCB"/>
<stop offset="1" stop-color="#A8A7E1"/>
</linearGradient>
<linearGradient id="paint2_linear" x1="104.827" y1="13.7756" x2="108.542" y2="13.7756" gradientUnits="userSpaceOnUse">
<stop stop-color="#827FCB"/>
<stop offset="1" stop-color="#A8A7E1"/>
</linearGradient>
<linearGradient id="paint3_linear" x1="104.255" y1="15.7434" x2="113.792" y2="15.7434" gradientUnits="userSpaceOnUse">
<stop stop-color="#827FCB"/>
<stop offset="1" stop-color="#A8A7E1"/>
</linearGradient>
<linearGradient id="paint4_linear" x1="128.404" y1="161.397" x2="131.377" y2="161.397" gradientUnits="userSpaceOnUse">
<stop stop-color="#827FCB"/>
<stop offset="1" stop-color="#A8A7E1"/>
</linearGradient>
<linearGradient id="paint5_linear" x1="79.9609" y1="172.92" x2="126.45" y2="172.92" gradientUnits="userSpaceOnUse">
<stop stop-color="#827FCB"/>
<stop offset="1" stop-color="#A8A7E1"/>
</linearGradient>
<linearGradient id="paint6_linear" x1="73.0576" y1="170.872" x2="76.7552" y2="170.872" gradientUnits="userSpaceOnUse">
<stop stop-color="#827FCB"/>
<stop offset="1" stop-color="#A8A7E1"/>
</linearGradient>
<linearGradient id="paint7_linear" x1="66.7356" y1="169.352" x2="76.4261" y2="169.352" gradientUnits="userSpaceOnUse">
<stop stop-color="#827FCB"/>
<stop offset="1" stop-color="#A8A7E1"/>
</linearGradient>
<linearGradient id="paint8_linear" x1="37.1658" y1="117.531" x2="14.5898" y2="85.4685" gradientUnits="userSpaceOnUse">
<stop stop-color="#ED4527"/>
<stop offset="0.9946" stop-color="#F26A41"/>
</linearGradient>
<linearGradient id="paint9_linear" x1="36.7786" y1="117.003" x2="14.2027" y2="84.9406" gradientUnits="userSpaceOnUse">
<stop stop-color="#ED4527"/>
<stop offset="0.9946" stop-color="#F26A41"/>
</linearGradient>
<linearGradient id="paint10_linear" x1="130.155" y1="105.34" x2="169.87" y2="91.6778" gradientUnits="userSpaceOnUse">
<stop stop-color="#F0CBDD"/>
<stop offset="0.9946" stop-color="#FAEBF3"/>
</linearGradient>
<linearGradient id="paint11_linear" x1="166.905" y1="92.8519" x2="171.929" y2="89.3616" gradientUnits="userSpaceOnUse">
<stop stop-color="#F0CBDD"/>
<stop offset="0.9946" stop-color="#FAEBF3"/>
</linearGradient>
<linearGradient id="paint12_linear" x1="155.624" y1="113.749" x2="167.304" y2="103.823" gradientUnits="userSpaceOnUse">
<stop stop-color="#19207D"/>
<stop offset="1" stop-color="#0E125C"/>
</linearGradient>
<linearGradient id="paint13_linear" x1="35.1281" y1="150.668" x2="145.602" y2="120.888" gradientUnits="userSpaceOnUse">
<stop stop-color="#ECEEFB"/>
<stop offset="1" stop-color="#E3E0FD"/>
</linearGradient>
<linearGradient id="paint14_linear" x1="110.844" y1="126.794" x2="123.233" y2="126.794" gradientUnits="userSpaceOnUse">
<stop stop-color="#C9CDFB"/>
<stop offset="1" stop-color="#E3E0FD"/>
</linearGradient>
<linearGradient id="paint15_linear" x1="66.0957" y1="164.132" x2="141.99" y2="125.945" gradientUnits="userSpaceOnUse">
<stop stop-color="#827FCB"/>
<stop offset="1" stop-color="#A8A7E1"/>
</linearGradient>
<linearGradient id="paint16_linear" x1="68.3648" y1="168.641" x2="144.258" y2="130.454" gradientUnits="userSpaceOnUse">
<stop stop-color="#827FCB"/>
<stop offset="1" stop-color="#A8A7E1"/>
</linearGradient>
<linearGradient id="paint17_linear" x1="70.6338" y1="173.151" x2="146.528" y2="134.964" gradientUnits="userSpaceOnUse">
<stop stop-color="#827FCB"/>
<stop offset="1" stop-color="#A8A7E1"/>
</linearGradient>
<linearGradient id="paint18_linear" x1="61.6757" y1="155.347" x2="137.569" y2="117.16" gradientUnits="userSpaceOnUse">
<stop stop-color="#827FCB"/>
<stop offset="1" stop-color="#A8A7E1"/>
</linearGradient>
<linearGradient id="paint19_linear" x1="58.6573" y1="149.348" x2="134.551" y2="111.161" gradientUnits="userSpaceOnUse">
<stop stop-color="#827FCB"/>
<stop offset="1" stop-color="#A8A7E1"/>
</linearGradient>
<linearGradient id="paint20_linear" x1="73.3314" y1="1.9855" x2="73.3314" y2="167.768" gradientUnits="userSpaceOnUse">
<stop stop-color="#F0CBDD"/>
<stop offset="0.9946" stop-color="#FAEBF3"/>
</linearGradient>
<linearGradient id="paint21_linear" x1="93.2128" y1="13.3829" x2="50.3025" y2="64.9393" gradientUnits="userSpaceOnUse">
<stop stop-color="#FBB666"/>
<stop offset="1" stop-color="#F89E44"/>
</linearGradient>
<linearGradient id="paint22_linear" x1="103.71" y1="112.956" x2="58.5579" y2="175.721" gradientUnits="userSpaceOnUse">
<stop stop-color="#FBB666"/>
<stop offset="1" stop-color="#F89E44"/>
</linearGradient>
<linearGradient id="paint23_linear" x1="67.8786" y1="88.8647" x2="44.9309" y2="-10.3928" gradientUnits="userSpaceOnUse">
<stop stop-color="#F0CBDD"/>
<stop offset="0.9946" stop-color="#FAEBF3"/>
</linearGradient>
<linearGradient id="paint24_linear" x1="67.8786" y1="62.8647" x2="44.9309" y2="-36.3928" gradientUnits="userSpaceOnUse">
<stop stop-color="#F0CBDD"/>
<stop offset="0.9946" stop-color="#FAEBF3"/>
</linearGradient>
<linearGradient id="paint25_linear" x1="67.8786" y1="71.8647" x2="44.9309" y2="-27.3928" gradientUnits="userSpaceOnUse">
<stop stop-color="#F0CBDD"/>
<stop offset="0.9946" stop-color="#FAEBF3"/>
</linearGradient>
<linearGradient id="paint26_linear" x1="67.8786" y1="79.8647" x2="44.9309" y2="-19.3928" gradientUnits="userSpaceOnUse">
<stop stop-color="#F0CBDD"/>
<stop offset="0.9946" stop-color="#FAEBF3"/>
</linearGradient>
<linearGradient id="paint27_linear" x1="67.8786" y1="54.8647" x2="44.9309" y2="-44.3928" gradientUnits="userSpaceOnUse">
<stop stop-color="#F0CBDD"/>
<stop offset="0.9946" stop-color="#FAEBF3"/>
</linearGradient>
<linearGradient id="paint28_linear" x1="15.3841" y1="147.024" x2="45.9482" y2="137.8" gradientUnits="userSpaceOnUse">
<stop stop-color="#F0CBDD"/>
<stop offset="0.9946" stop-color="#FAEBF3"/>
</linearGradient>
<linearGradient id="paint29_linear" x1="3.82264" y1="122.288" x2="3.89503" y2="131.402" gradientUnits="userSpaceOnUse">
<stop stop-color="#F0CBDD"/>
<stop offset="0.9946" stop-color="#FAEBF3"/>
</linearGradient>
<linearGradient id="paint30_linear" x1="130.838" y1="31.6063" x2="130.838" y2="61.0484" gradientUnits="userSpaceOnUse">
<stop stop-color="#FBB666"/>
<stop offset="1" stop-color="#F69241"/>
</linearGradient>
<linearGradient id="paint31_linear" x1="130.817" y1="31.6063" x2="130.817" y2="61.0484" gradientUnits="userSpaceOnUse">
<stop stop-color="#FBB666"/>
<stop offset="1" stop-color="#F69241"/>
</linearGradient>
<linearGradient id="paint32_linear" x1="156.277" y1="76.4393" x2="135.942" y2="98.0545" gradientUnits="userSpaceOnUse">
<stop stop-color="#FBB666"/>
<stop offset="1" stop-color="#F89E44"/>
</linearGradient>
<linearGradient id="paint33_linear" x1="110.512" y1="78.1048" x2="118.198" y2="91.0739" gradientUnits="userSpaceOnUse">
<stop stop-color="#FBB666"/>
<stop offset="1" stop-color="#F89E44"/>
</linearGradient>
<linearGradient id="paint34_linear" x1="130.893" y1="77.5588" x2="130.893" y2="104.348" gradientUnits="userSpaceOnUse">
<stop stop-color="#FBB666"/>
<stop offset="1" stop-color="#F89E44"/>
</linearGradient>
<linearGradient id="paint35_linear" x1="142.941" y1="94.7959" x2="169.328" y2="65.2492" gradientUnits="userSpaceOnUse">
<stop stop-color="#ED4527"/>
<stop offset="0.9946" stop-color="#F26A41"/>
</linearGradient>
<linearGradient id="paint36_linear" x1="124.236" y1="19.8948" x2="128.239" y2="55.4399" gradientUnits="userSpaceOnUse">
<stop stop-color="#B22878"/>
<stop offset="1" stop-color="#C24A9A"/>
</linearGradient>
<linearGradient id="paint37_linear" x1="43.2149" y1="109.624" x2="92.6899" y2="137.724" gradientUnits="userSpaceOnUse">
<stop stop-color="#ED4527"/>
<stop offset="0.9946" stop-color="#F26A41"/>
</linearGradient>
<linearGradient id="paint38_linear" x1="71.5473" y1="134.952" x2="62.1802" y2="100.126" gradientUnits="userSpaceOnUse">
<stop stop-color="#F0CBDD"/>
<stop offset="0.9946" stop-color="#FAEBF3"/>
</linearGradient>
</defs>
</svg>
