<svg width="126" height="113" viewBox="0 0 126 113" fill="none" xmlns="http://www.w3.org/2000/svg">
<path d="M75.8793 41.4137C73.0681 40.5909 70.9425 42.168 73.3423 44.4992C75.7422 46.8305 79.719 49.436 77.5249 51.0816C75.3308 52.7272 54.8295 48.3389 40.5677 42.3736C26.3059 36.4084 25.1403 33.5972 20.3407 37.5055C15.541 41.4137 17.8723 46.5562 29.6657 51.9044C41.459 57.2525 66.0058 62.7378 75.4679 61.7779C84.93 60.818 87.7412 59.6523 85.8214 56.8411C83.9015 54.0299 82.7359 51.3558 86.0957 51.6301C89.4554 51.9044 100.769 52.9329 103.786 51.2187C106.803 49.5046 106.323 49.2303 101.043 48.1332C95.7635 47.0362 81.0218 42.8536 75.8793 41.4137Z" fill="url(#paint0_linear)"/>
<path d="M59.7664 36.0656C54.8296 34.2828 49.4815 31.2659 47.6987 34.2828C45.9846 37.2997 54.5554 41.4823 60.1092 41.208C65.6631 40.9338 66.8287 38.6025 59.7664 36.0656Z" fill="url(#paint1_linear)"/>
<path d="M73.1991 14.3413C73.1991 14.3413 72.0335 17.1525 71.2793 17.1525C71.005 17.1525 69.8394 15.644 68.2623 13.6556C65.4511 10.0902 61.2 4.94772 58.3888 3.71353C54.0006 1.79367 49.818 3.16501 48.5153 6.93615C47.1439 10.7073 50.1608 15.6441 52.2178 18.2496C53.2463 19.5523 54.5491 21.2665 55.6461 22.7064C56.7432 24.2148 57.6346 25.3805 57.6346 25.3805C57.6346 25.3805 57.6346 27.4375 56.1261 27.6431C54.6177 27.8488 54.2063 26.7518 54.2063 26.7518L49.2009 19.6209C49.2009 19.6209 39.8759 6.11335 49.7495 1.10802C61.1315 -4.72011 73.1991 14.3413 73.1991 14.3413Z" fill="#F1AD66"/>
<path d="M76.9021 48.8301C70.114 51.9842 65.8629 50.1329 64.0802 48.9672C63.3946 48.4873 63.0517 48.1445 63.0517 48.1445C63.0517 48.1445 49.5442 29.2202 49.7499 26.2033C49.7499 26.2033 51.8754 20.6494 60.0348 15.2327C68.1942 9.81594 71.5539 8.58175 73.6795 9.67881C75.805 10.7759 91.2324 27.3003 92.0552 29.2887C92.1924 29.6316 92.3295 30.043 92.3295 30.5229C92.8094 35.6654 85.5414 44.8533 76.9021 48.8301Z" fill="url(#paint2_linear)"/>
<path d="M69.3654 24.9957C69.3654 24.9957 70.1882 22.4587 67.9255 22.0473C65.7314 21.7045 64.7714 23.2815 65.0457 24.9271C65.32 26.5727 67.7884 26.4356 67.7884 26.4356C67.7884 26.4356 69.8454 32.6751 70.7367 32.7436C71.6281 32.8122 75.3992 29.7267 75.3992 29.0411C75.3992 28.3554 69.3654 24.9957 69.3654 24.9957Z" fill="url(#paint3_linear)"/>
<path d="M76.204 47.7238C69.4159 50.8779 65.1648 49.0266 63.3821 47.861C63.3135 47.2439 63.1764 42.6499 71.6786 34.6277C80.7979 25.9883 89.9172 26.4683 91.3571 28.8681C91.4257 29.0053 91.5628 29.2109 91.6314 29.3481C92.1113 34.5591 84.8433 43.747 76.204 47.7238Z" fill="#E59745"/>
<path d="M50.0113 25.4399C50.0113 25.4399 51.9997 20.9831 53.2339 20.7088C54.4681 20.4346 67.3585 35.7934 66.8786 36.959C66.4672 38.1246 64.0673 42.4443 63.3131 43.7471C62.6275 45.0498 63.2445 46.9011 61.8732 45.1184C60.5705 43.3357 49.5999 27.4283 50.0113 25.4399Z" fill="#EFA453"/>
<path d="M71.8842 10.0125C70.0329 9.8068 71.0614 12.138 75.6554 17.1434C80.2493 22.0801 83.6776 25.7827 85.1861 24.6857C86.6945 23.5886 83.4033 20.4346 79.6322 16.5949C75.861 12.7552 73.5984 10.2182 71.8842 10.0125Z" fill="#FDC07C"/>
<path d="M3.19303 78.9992C-0.0295797 75.6395 -1.81228 67.7544 2.78165 63.9832C7.37559 60.2121 13.478 64.4632 15.8092 67.6858C18.7576 71.7312 19.9918 77.5593 15.6721 81.1248C11.3524 84.6217 6.41564 82.359 3.19303 78.9992ZM13.478 78.8621C16.0835 76.7365 14.9179 72.1426 13.1351 69.6742C11.7638 67.6858 7.64984 64.5317 4.90719 66.7944C2.16454 69.0571 3.53588 74.4738 5.5243 76.5308C7.51272 78.5878 10.8724 81.0562 13.478 78.8621Z" fill="url(#paint4_linear)"/>
<path d="M17.0432 69.2628L40.9042 52.1212C41.5899 51.6412 41.727 50.6813 41.247 49.9957L41.0414 49.6528C40.5614 48.9672 39.6015 48.7615 38.9158 49.31L14.5062 66.7944C13.9577 67.2058 13.6834 67.8914 13.9577 68.5085C14.1634 69.0571 14.7805 69.6056 16.2889 69.537C16.4946 69.537 16.8375 69.3999 17.0432 69.2628Z" fill="url(#paint5_linear)"/>
<path d="M39.6016 51.9157L43.3041 56.9896L41.59 58.1552L40.2872 56.5096L35.8304 59.5951L37.2018 61.515L35.419 62.6806L31.9907 57.5381L39.6016 51.9157Z" fill="url(#paint6_linear)"/>
<path d="M122.91 77.765C119.207 73.6511 116.053 76.2566 111.459 80.0277C106.66 84.0046 104.808 87.2957 109.265 91.7526C112.968 95.4551 117.013 92.5753 120.236 89.5584C125.241 84.7588 126.612 81.879 122.91 77.765ZM118.042 86.8843C116.328 88.5299 114.476 90.5183 112.556 88.4614C110.705 86.4044 111.734 84.8274 114.271 82.7018C116.739 80.6448 118.247 78.6564 120.236 80.8505C122.224 83.0446 120.716 84.3474 118.042 86.8843Z" fill="url(#paint7_linear)"/>
<path d="M110.636 81.1933L89.7922 58.0865C89.1751 57.4009 89.2436 56.3724 89.9293 55.7553L90.2721 55.481C90.9578 54.8639 91.9863 54.9325 92.6034 55.6181L113.927 79.2049C114.407 79.7534 114.476 80.5077 114.133 81.1248C113.79 81.6733 113.036 82.0847 111.528 81.6733C111.185 81.6047 110.911 81.399 110.636 81.1933Z" fill="url(#paint8_linear)"/>
<path d="M91.232 58.2236L87.1866 61.7891C86.7066 62.2005 86.6381 62.9547 87.1181 63.4347C87.5295 63.8461 88.2151 63.9146 88.6951 63.5032L89.5864 62.749L92.5348 65.9716C93.0147 66.5202 93.9061 66.5887 94.5232 66.1773L96.923 64.3946L91.232 58.2236Z" fill="url(#paint9_linear)"/>
<path d="M50.0237 65.6288C50.0237 65.6288 51.0522 65.0117 51.875 65.6974C52.6978 66.383 51.875 67.1372 51.875 67.1372L46.3211 75.9137C46.3211 75.9137 46.8011 76.7365 47.0754 76.2566C47.3496 75.7766 52.4921 67.4801 52.4921 67.4801C52.4921 67.4801 53.452 67.6858 53.452 68.7829C53.5206 69.8799 42.8928 87.0214 42.8928 87.0214L37.9561 84.0731L50.0237 65.6288Z" fill="url(#paint10_linear)"/>
<path d="M31.7163 84.2788L27.3967 91.8211C26.4367 93.5352 26.9853 95.6608 28.6308 96.6893L35.8303 101.215C37.5445 102.312 39.7386 101.763 40.8356 100.118L45.5667 92.6439C46.6638 90.9297 46.1152 88.667 44.4011 87.57L36.7217 82.976C35.0075 81.879 32.6763 82.4961 31.7163 84.2788ZM32.6762 89.2156L40.2871 94.0152C40.7671 94.2895 40.9042 94.9066 40.5614 95.3865L39.19 97.5121C38.9158 97.992 38.2987 98.0606 37.8187 97.7863L30.345 92.9867C29.9336 92.7124 29.7965 92.1639 30.0022 91.684L31.2364 89.5584C31.5792 89.0784 32.1963 88.9413 32.6762 89.2156Z" fill="url(#paint11_linear)"/>
<path d="M73.0624 97.0321C68.8798 95.3865 64.1487 97.5121 62.5031 101.695C60.8576 105.877 62.9831 110.608 67.1657 112.254C71.3482 113.899 76.0793 111.774 77.7249 107.591C79.3704 103.409 77.2449 98.6777 73.0624 97.0321ZM68.2627 109.374C65.6572 108.346 64.3544 105.397 65.3144 102.792C66.3429 100.186 69.2912 98.8834 71.8967 99.8434C74.5022 100.872 75.805 103.82 74.8451 106.426C73.8851 109.1 70.9368 110.403 68.2627 109.374Z" fill="url(#paint12_linear)"/>
<path d="M68.9482 97.9236L71.4166 66.8631C71.4852 65.8346 72.4451 65.0803 73.4736 65.2175C74.4335 65.3546 75.1192 66.1774 75.0506 67.2059L72.5822 97.9921L68.9482 97.9236Z" fill="url(#paint13_linear)"/>
<path d="M72.1028 79.342L66.9603 78.8621C66.069 78.7935 65.3833 77.9707 65.5204 77.0793L65.6576 75.1595C65.7261 74.5424 66.2061 74.0624 66.8232 74.131L68.4688 74.1996L68.5374 73.0339L66.9603 72.8968C66.3432 72.8282 65.8633 72.2797 65.9318 71.6626L66.1375 69.3314C66.2061 68.7143 66.6861 68.2343 67.3032 68.3029L72.5828 68.5771V73.5139H72.3085L72.1028 75.5023V79.342Z" fill="url(#paint14_linear)"/>
<defs>
<linearGradient id="paint0_linear" x1="83.0968" y1="55.2171" x2="29.1387" y2="40.7317" gradientUnits="userSpaceOnUse">
<stop stop-color="#F1CCDE"/>
<stop offset="0.9946" stop-color="#FBECF4"/>
</linearGradient>
<linearGradient id="paint1_linear" x1="69.9989" y1="40.3075" x2="52.4354" y2="36.6861" gradientUnits="userSpaceOnUse">
<stop stop-color="#F1CCDE"/>
<stop offset="0.9946" stop-color="#FBECF4"/>
</linearGradient>
<linearGradient id="paint2_linear" x1="83.7794" y1="46.6838" x2="69.1449" y2="27.731" gradientUnits="userSpaceOnUse">
<stop stop-color="#E59745"/>
<stop offset="0.9946" stop-color="#F1AD66"/>
</linearGradient>
<linearGradient id="paint3_linear" x1="66.2798" y1="19.6588" x2="70.7265" y2="28.0133" gradientUnits="userSpaceOnUse">
<stop stop-color="#2C3178"/>
<stop offset="0.9946" stop-color="#1C194E"/>
</linearGradient>
<linearGradient id="paint4_linear" x1="6.72017" y1="76.0227" x2="39.9579" y2="30.1281" gradientUnits="userSpaceOnUse">
<stop stop-color="#8B1D56"/>
<stop offset="1" stop-color="#C84799"/>
</linearGradient>
<linearGradient id="paint5_linear" x1="5.26172" y1="74.046" x2="51.2472" y2="44.0904" gradientUnits="userSpaceOnUse">
<stop stop-color="#8B1D56"/>
<stop offset="1" stop-color="#C84799"/>
</linearGradient>
<linearGradient id="paint6_linear" x1="7.21396" y1="77.0428" x2="53.1993" y2="47.0872" gradientUnits="userSpaceOnUse">
<stop stop-color="#8B1D56"/>
<stop offset="1" stop-color="#C84799"/>
</linearGradient>
<linearGradient id="paint7_linear" x1="97.7078" y1="59.1756" x2="116.71" y2="85.7165" gradientUnits="userSpaceOnUse">
<stop stop-color="#F3704A"/>
<stop offset="1" stop-color="#F7915D"/>
</linearGradient>
<linearGradient id="paint8_linear" x1="91.2239" y1="53.7561" x2="116.9" y2="89.6177" gradientUnits="userSpaceOnUse">
<stop stop-color="#F3704A"/>
<stop offset="1" stop-color="#F7915D"/>
</linearGradient>
<linearGradient id="paint9_linear" x1="86.9068" y1="56.8565" x2="112.527" y2="92.6401" gradientUnits="userSpaceOnUse">
<stop stop-color="#F3704A"/>
<stop offset="1" stop-color="#F7915D"/>
</linearGradient>
<linearGradient id="paint10_linear" x1="29.1926" y1="98.4069" x2="55.7431" y2="64.5133" gradientUnits="userSpaceOnUse">
<stop stop-color="#FDC07C"/>
<stop offset="0.9946" stop-color="#F1AD66"/>
</linearGradient>
<linearGradient id="paint11_linear" x1="30.5475" y1="99.4685" x2="57.098" y2="65.5747" gradientUnits="userSpaceOnUse">
<stop stop-color="#FDC07C"/>
<stop offset="0.9946" stop-color="#F1AD66"/>
</linearGradient>
<linearGradient id="paint12_linear" x1="66.1997" y1="174.247" x2="63.9414" y2="214.344" gradientUnits="userSpaceOnUse">
<stop stop-color="#292A69"/>
<stop offset="0.9946" stop-color="#1C194E"/>
</linearGradient>
<linearGradient id="paint13_linear" x1="92.9243" y1="281.159" x2="97.1377" y2="321.098" gradientUnits="userSpaceOnUse">
<stop stop-color="#292A69"/>
<stop offset="0.9946" stop-color="#1C194E"/>
</linearGradient>
<linearGradient id="paint14_linear" x1="90.7569" y1="278.699" x2="94.9147" y2="318.112" gradientUnits="userSpaceOnUse">
<stop stop-color="#292A69"/>
<stop offset="0.9946" stop-color="#1C194E"/>
</linearGradient>
</defs>
</svg>
